<?xml version="1.0" standalone="no"?>
<!DOCTYPE svg PUBLIC "-//W3C//DTD SVG 1.1//EN" "http://www.w3.org/Graphics/SVG/1.1/DTD/svg11.dtd">
<svg xmlns="http://www.w3.org/2000/svg">
<metadata>Copyright (C) 2022 by original authors @ fontello.com</metadata>
<defs>
<font id="klbtheme" horiz-adv-x="1000" >
<font-face font-family="klbtheme" font-weight="400" font-stretch="normal" units-per-em="1000" ascent="850" descent="-150" />
<missing-glyph horiz-adv-x="1000" />
<glyph glyph-name="color-picker-thin" unicode="&#xe800;" d="M863 458l-71 71 41 42c13 12 21 29 21 46 0 16-8 33-21 46l-29 29c-25 25-71 25-91 0l-42-42-75 75c-8 8-25 8-33 0-9-8-9-25 0-33l87-92c0 0 0 0 0 0s0 0 0 0l88-87c0 0 0 0 0 0l87-88c4-4 13-8 17-8s12 4 16 8c13 8 13 25 5 33z m-163 159l42 41c8 9 16 9 25 0l29-29c4-4 4-8 4-12 0-4 0-9-4-13l-42-41-54 54z m-17-159l-87 88c-8 8-13 12-21 17-17 8-33 8-50 0-8-5-17-9-25-17l-317-317c-4-4-12-12-12-21l-42-104c-12-33-8-71 21-96 17-16 38-25 63-25 12 0 20 4 33 9l104 41c8 5 17 9 21 13l317 317c4 4 12 12 12 20 4 9 4 17 4 25 0 9 0 17-4 25-4 13-8 21-17 25z m-29-54c0 0 0-4-4-4l-317-317c0 0-4-4-4-4l-104-41c-17-5-29-5-42 8-12 12-12 25-8 42l42 104c0 4 4 4 4 4l317 317c0 0 4 4 4 4 0 0 4 0 8 0 4 0 4 0 8 0 5 0 5-4 5-4v0l87-88c0 0 4-4 4-4 0 0 0-4 0-8s0-5 0-9z" horiz-adv-x="1000" />

<glyph glyph-name="color-picker" unicode="&#xe801;" d="M696 471l-88 87c-8 9-16 13-25 17-20 8-41 8-62 0-13-4-21-8-29-17l-317-316c-8-9-12-17-17-25l-41-104c-17-38-9-84 21-113 16-25 41-33 70-33 13 0 25 4 38 8l104 42c8 4 21 8 25 16l317 317c8 8 12 17 16 25 5 8 9 21 9 33s-4 21-9 34c0 12-4 21-12 29z m-375-379l-104-42c-13-4-21 0-25 4-4 4-9 13-4 25l41 104 321 317c0 0 0 0 0 0l88-87-317-321z m550 379l-58 58 29 29c16 17 25 38 25 59 0 21-9 41-25 58l-29 29c-30 29-88 29-117 0l-29-29-59 58c-16 17-41 17-58 0-17-16-17-41 0-58l175-175c0 0 0 0 0 0l88-87c8-9 16-13 29-13s21 4 29 13c17 16 17 41 0 58z m-117 117l-29 29 29 29 29-29-29-29z" horiz-adv-x="1000" />

<glyph glyph-name="open-new-window-thin" unicode="&#xe802;" d="M896 733c0 5-4 5-4 9-4 4-4 4-9 4-4 0-4 0-8 0h-250c-12 0-25-13-25-25s13-25 25-25h192l-334-333c-8-9-8-25 0-34 5-4 13-8 17-8 4 0 13 4 17 8l333 334v-188c0-12 13-25 25-25s25 13 25 25v250c0 4 0 8-4 8z m-21-400c-12 0-25-12-25-25v-250c0-16-8-29-17-41-12-13-25-17-41-17h-584c-16 0-29 8-41 17-13 12-17 25-17 41v584c0 16 8 29 17 41 12 13 25 17 41 17h250c13 0 25 13 25 25s-12 25-25 25h-250c-29 0-54-12-75-33s-33-46-33-75v-584c0-29 13-54 33-75s46-33 75-33h584c29 0 54 12 75 33s33 46 33 75v250c0 13-12 25-25 25z" horiz-adv-x="1000" />

<glyph glyph-name="open-in-window-thin" unicode="&#xe803;" d="M850-50h-517c-12 0-25 12-25 25s13 25 25 25h517l0 700-700 0 0-517c0-12-12-25-25-25s-25 13-25 25v517c0 13 4 25 13 33 12 13 25 17 37 17h700c13 0 25-4 33-12 9-9 13-21 13-34v-700c0-12-4-25-13-33-8-17-20-21-33-21z m-704 21c-4 0-13 4-17 8-8 8-8 25 0 34l313 312h-109c-12 0-25 13-25 25s13 25 25 25h167c4 0 8 0 8 0 5 0 5-4 9-4 4-4 4-4 4-8 0-5 0-5 0-9v-166c0-13-13-25-25-25s-25 12-25 25v108l-313-313c0-8-8-12-12-12z" horiz-adv-x="1000" />

<glyph glyph-name="erase-thin" unicode="&#xe804;" d="M875 0h-396l367 367c21 21 33 46 33 75 0 29-12 54-33 75l-208 204c-42 42-113 42-155 0l-383-383c-17-17-29-42-29-71s12-54 33-75l209-209c16-16 33-25 54-29 4 0 4 0 8 0h500c13 0 25 13 25 25s-12 21-25 21z m-354 692c21 21 62 21 83 0l209-204c12-13 16-25 16-42 0-17-4-29-16-42l-146-146-288 292 142 142z m-175-675l-208 208c-13 13-17 25-17 42s4 29 17 41l204 205 287-292-208-208c-17-17-54-17-75 4z" horiz-adv-x="1000" />

<glyph glyph-name="erase" unicode="&#xe805;" d="M875 17h-354l337 337c25 25 38 54 38 88 0 33-13 66-38 87l-208 204c-46 46-129 46-175 0l-383-383c-25-25-38-54-38-87 0-34 13-67 38-88l208-208c17-17 38-30 63-34 4 0 8 0 12 0h500c25 0 42 21 42 42s-17 42-42 42z m-342 662c17 17 42 17 59 0l208-204c8-8 13-17 13-29s-5-21-13-29l-133-134-263 267 129 129z m-175-650l-208 209c-8 8-12 16-12 29s4 21 12 29l192 192 266-267-195-196c-13-12-38-12-55 4z" horiz-adv-x="1000" />

<glyph glyph-name="axes-thin" unicode="&#xe806;" d="M900 46l-25 112c-4 13-17 21-29 21-13-4-21-16-21-29l13-50-313 229v338l50-50c8-9 25-9 33 0 9 8 9 25 0 33l-91 92c0 0 0 0 0 0 0 0 0 0 0 0 0 0 0 0 0 0v0c0 0 0 0 0 0 0 0 0 0 0 0 0 0 0 0 0 0 0 0-4 4-9 4-4 0-8 4-8 4 0 0 0 0 0 0h0c0 0 0 0 0 0h0c0 0 0 0 0 0 0 0 0 0 0 0h0c0 0 0 0 0 0h0c0 0 0 0 0 0-4 0-8 0-8-4-4 0-4-4-9-4 0 0 0 0 0 0 0 0 0 0 0 0l0 0c0 0 0 0 0 0 0 0 0 0 0 0 0 0 0 0 0 0 0 0 0 0 0 0l-95-92c-9-8-9-25 0-33 8-9 25-9 33 0l50 50v-338l-313-229 13 50c4 13-4 25-21 29-8 0-25-8-25-21l-25-112c0-8 0-13 4-21 0 0 0 0 0 0s0 0 0 0c0 0 0 0 0 0l0 0c4-4 13-8 17-8l117-21c0 0 4 0 4 0 12 0 21 8 25 21 4 12-4 25-21 29l-63 12 317 230 317-230-63-12c-12-4-21-17-21-29 5-13 17-21 30-21l116 21c4 0 13 4 17 8 0 0 0 0 0 0 0 0 0 0 0 0v0c0 0 0 0 0 0h0c0 0 0 0 0 0l0 0c4 4 4 13 4 21z" horiz-adv-x="1000" />

<glyph glyph-name="axes" unicode="&#xe807;" d="M917 50l-25 113c-4 20-25 37-50 33-21-4-38-25-34-50l0-8-266 200v291l25-21c16-16 41-16 58 0 17 17 17 42 0 59l-92 91c-4 5-8 5-12 9-13 4-25 4-33 0-5 0-9-4-13-9l-96-95c-16-17-16-42 0-59 17-16 42-16 59 0l20 21v-292l-270-200 0 9c4 21-9 46-34 50-21 4-46-9-50-34l-21-108c0 0 0 0 0 0 0 0 0 0 0 0v0l0 0c0 0 0 0 0 0 0 0 0 0 0 0 0 0 0 0 0 0 0 0 0 0 0 0 0 0 0 0 0 0 0 0 0 0 0 0l0 0c0 0 0 0 0 0v0c0-8 0-21 9-29 0 0 0 0 0 0 0 0 0 0 0 0h0c0 0 0 0 0 0 0 0 0 0 0 0 8-8 16-13 25-17l116-29c5 0 5 0 9 0 21 0 37 12 41 33 5 25-12 46-33 50l-25 5 275 200 275-200-25-5c-21-4-37-25-33-50s25-37 50-33l116 21c9 0 21 8 25 17 0 0 0 0 0 0 0 0 0 0 0 0 0 0 0 0 0 0 0 0 0 0 0 0s0 0 0 0v0c0 0 0 0 0 0 0 0 0 0 0 0v0c0 0 0 0 0 0 9 12 9 25 9 37z" horiz-adv-x="1000" />

<glyph glyph-name="sphere-thin" unicode="&#xe808;" d="M500 792c-242 0-442-200-442-442s200-442 442-442 442 200 442 442-200 442-442 442z m-392-442c0 158 92 292 225 354-66-79-108-208-108-354 0-146 42-275 108-354-133 62-225 196-225 354z m392-392c-125 0-225 175-225 392 0 217 100 392 225 392 217 0 392-175 392-392 0-217-175-392-392-392z" horiz-adv-x="1000" />

<glyph glyph-name="sphere" unicode="&#xe809;" d="M500 808c-254 0-458-204-458-458s204-458 458-458 458 204 458 458-204 458-458 458z m-375-458c0 125 63 238 158 308-45-83-75-187-75-308 0-121 30-225 75-308-95 71-158 183-158 308z m375-375c-112 0-208 171-208 375 0 204 96 375 208 375 208 0 375-167 375-375s-167-375-375-375z" horiz-adv-x="1000" />

<glyph glyph-name="download-feather-thin" unicode="&#xe80a;" d="M875 246c-12 0-21-8-21-21v-167c0-33-29-62-62-62h-584c-33 0-62 29-62 62v167c0 13-8 21-21 21s-21-8-21-21v-167c0-58 46-104 104-104h584c58 0 104 46 104 104v167c0 13-8 21-21 21z m-392-38c0 0 5-4 9-4 4 0 4 0 8 0s4 0 8 0c5 0 5 4 9 4l208 209c8 8 8 21 0 29s-21 8-29 0l-171-171v450c0 13-8 21-21 21s-25-8-25-21v-450l-171 175c-8 8-20 8-29 0s-8-21 0-29l204-213z" horiz-adv-x="1000" />

<glyph glyph-name="bell" unicode="&#xe80b;" d="M500 788v-35c142-23 250-146 250-294v-65c0-88 30-175 86-244l29-36c11-14 13-34 5-50-7-16-24-26-42-26h-781c-18 0-35 10-42 26-8 16-6 36 5 50l29 36c56 69 86 156 86 244v65c0 148 108 271 250 294v35c0 34 28 62 63 62 34 0 62-28 62-62v0z m-78-125c-112 0-203-91-203-204v-65c0-93-27-185-78-263h593c-51 78-78 170-78 263v65c0 113-91 204-203 204h-31z m141-688c0-31-14-65-37-89-23-23-57-36-88-36-34 0-65 13-89 36-23 24-36 58-36 89h250z" horiz-adv-x="875" />

<glyph glyph-name="bell-slash" unicode="&#xe80c;" d="M359 618c44 71 118 121 204 135v35c0 34 27 62 62 62 35 0 63-28 63-62v-35c141-23 250-146 250-294v-65c0-88 30-175 85-244l29-36c9-13 13-30 8-45l172-135c20-16 24-46 8-66-16-20-45-24-66-8l-1156 906c-20 16-24 46-8 66 16 20 45 24 66 8l283-222z m74-58l447-349c-24 57-36 119-36 183v65c0 113-91 204-203 204h-32c-75 0-141-42-176-103v0z m-120-166v22l91-72c-8-75-34-149-75-213h345l119-93h-559c-18 0-34 10-42 26-8 16-5 36 6 50l29 36c55 69 86 156 86 244v0z m437-419c0-31-13-65-36-89-24-23-58-36-89-36-33 0-65 13-88 36-24 24-37 58-37 89h250z" horiz-adv-x="1250" />

<glyph glyph-name="bookmark" unicode="&#xe80d;" d="M656 850h-562c-52 0-94-42-94-94v-843c0-49 52-79 94-54l281 164 281-164c42-23 94 5 94 54v843c0 52-42 94-94 94z m0-883l-281 164-281-164v778c0 6 5 11 10 11h539c8 0 13-5 13-11v-778z" horiz-adv-x="750" />

<glyph glyph-name="chess-bishop" unicode="&#xe80e;" d="M578-56h-533c-24 0-45-21-45-45s21-49 45-49h531c28 0 49 21 49 47s-21 47-47 47z m-578 312c0-101 59-166 125-187v-63h94v131l-66 21c-28 9-59 40-59 98 0 165 182 404 220 404 38 0 117-132 137-168l-129-129c-6-6-9-14-9-22s3-16 9-22l22-22c6-6 14-9 22-9s16 3 22 9l106 106c22-55 37-107 37-147 0-58-30-89-59-98l-66-21v-131h94v63c66 21 125 86 125 187 0 144-132 385-235 472 27 7 48 30 48 60 0 34-29 62-63 62h-125c-34 0-62-28-62-62 0-30 20-53 48-60-104-87-236-328-236-472z" horiz-adv-x="625" />

<glyph glyph-name="chess-king" unicode="&#xe80f;" d="M765-56h-656c-26 0-45-21-45-45s19-49 45-49h655c26 0 45 21 45 45s-18 49-44 49z m110 484c0 23-7 46-22 65-20 28-52 45-87 45l-282 0v109h61c26 0 47 21 47 47s-19 47-45 47h-61v64c-2 24-23 45-50 45s-46-21-46-45v-64h-62c-26 0-47-21-47-47s21-47 47-47h61v-109h-280c-61 0-109-50-109-110 0-11 2-22 5-33l129-389h98l-138 417c0 2 0 3 0 5 0 7 6 16 15 16h656c12 0 16-11 16-16 0-1 0-3 0-4l-139-418h99l127 389c5 11 7 22 7 33z" horiz-adv-x="875" />

<glyph glyph-name="chess-knight" unicode="&#xe810;" d="M86 224l28-13c-33-39-51-89-51-141 0-1 0-64 0-64h94v63c0 48 27 93 70 114l75 46c25 13 42 40 42 69v114l-30-17c-10-5-17-14-20-25l-15-49c-4-15-15-27-30-33l-20-8c-6-3-13-4-19-4-7 0-14 1-21 4l-65 29c-18 9-30 27-30 47v220c0 10 4 19 11 27l14 14-22 46c-2 3-3 7-3 12 0 10 8 19 19 19h205c170 0 305-138 305-307v-381h94l0 381c2 221-178 401-399 401h-205c-62 0-113-51-113-113 0-17 3-33 10-49-7-16-10-33-10-50v-220c0-57 34-109 86-132z m71 306c0-22 17-39 39-39 21 0 39 17 39 39s-18 39-39 39c-22 0-39-18-39-39z m546-586h-658c-24 0-45-21-45-45s21-49 45-49h658c26 0 47 21 47 47s-21 47-47 47z" horiz-adv-x="750" />

<glyph glyph-name="chess-pawn" unicode="&#xe811;" d="M578-55h-533c-26 0-45-21-45-46s21-47 45-47h531c26 0 46 21 46 45s-18 48-44 48z m-470 344l48 0v-57c0-79-7-159-45-224h104c29 72 35 149 35 222v58h125v-58c0-73 6-151 35-224h104c-38 65-45 145-45 224v59l47 0c26 0 47 19 47 47 0 26-21 47-46 47h-46c46 43 74 104 74 170 0 19-2 37-7 57-6 34-60 178-227 178-128 0-233-105-233-233 0-68 30-129 76-172h-46c-24 0-45-23-45-47 0-28 21-47 45-47z m205 407c77 0 140-63 140-141s-63-141-140-141-141 62-141 141 63 141 141 141z" horiz-adv-x="625" />

<glyph glyph-name="chess-queen" unicode="&#xe812;" d="M500 631c60 0 109 49 109 110s-49 109-109 109-111-49-111-109 51-110 111-110z m498-166c0 10-5 19-14 25l-53 32c-5 3-11 5-17 5-11-1-21-6-27-14-18-24-45-38-74-38-7 0-12 1-18 2-45 8-76 51-76 97-2 14-14 26-26 26h-76c-12 0-23-8-25-19-10-44-48-75-94-75-44 0-82 31-92 75 0 11-11 19-23 19h-76c-16 0-27-12-27-26 0-36-27-99-94-99-30 0-57 14-75 38-4 8-14 13-25 14-6 0-11-2-16-6l-56-31c-9-6-14-16-14-25 0-5 1-10 3-15l212-444h103l-182 382c17-4 34-7 52-7 4 0 111-3 165 103 34-45 90-71 147-71 57 0 111 26 147 70 9-19 57-102 166-102 17 0 34 2 50 7l-181-382h103l212 444c2 5 1 10 1 15z m-170-521h-656c-26 0-47-21-47-45s21-49 47-49h656c26 0 47 21 47 45s-21 49-47 49z" horiz-adv-x="1000" />

<glyph glyph-name="chess-rook" unicode="&#xe813;" d="M703-56h-658c-24 0-45-21-45-45s21-49 45-49h658c26 0 47 21 47 47s-21 47-47 47z m-29 844h-601c-40 0-73-34-73-75v-272c0-18 8-35 22-47l72-63c0-17 0-35 0-52 0-77-2-156-23-273h95c19 113 22 193 22 286 0 29 0 60 0 93l-94 81v228h125v-94h94v94h125v-94h93v94h125v-228l-93-81c0-33-1-63-1-92 0-94 3-174 22-287h95c-21 117-23 197-23 274 0 17 0 34 0 51l73 63c13 12 21 29 21 47v272c0 41-33 75-76 75z m-299-375c-34 0-62-29-62-63v-125h125v125c0 34-29 63-63 63z" horiz-adv-x="750" />

<glyph glyph-name="circle-check" unicode="&#xe814;" d="M476 186c-21-21-56-21-77 0l-125 125c-21 22-21 56 0 78 21 21 56 21 77 0l87-87 211 212c21 21 56 21 77 0 22-22 22-56 0-78l-250-250z m524 164c0-276-224-500-500-500-276 0-500 224-500 500 0 276 224 500 500 500 276 0 500-224 500-500z m-500 406c-224 0-406-182-406-406 0-224 182-406 406-406 224 0 406 182 406 406 0 224-182 406-406 406z" horiz-adv-x="1000" />

<glyph glyph-name="circle-dot" unicode="&#xe815;" d="M313 350c0 105 82 188 187 188 104 0 188-83 188-188 0-103-84-187-188-187-105 0-187 84-187 187z m687 0c0-276-224-500-500-500-276 0-500 224-500 500 0 276 224 500 500 500 276 0 500-224 500-500z m-500 406c-224 0-406-182-406-406 0-224 182-406 406-406 224 0 406 182 406 406 0 224-182 406-406 406z" horiz-adv-x="1000" />

<glyph glyph-name="circle-down" unicode="&#xe816;" d="M672 381h-109l-2 172c0 26-21 47-47 47h-31c-25 0-47-21-47-47l2-172h-110c-18 0-35-11-43-28-7-17-4-37 9-50l173-188c9-9 22-15 35-15 15 1 25 6 34 15l171 188c12 14 15 33 8 50s-25 28-43 28z m-172 469c-276 0-500-224-500-500s224-500 500-500 500 224 500 500-224 500-500 500z m0-906c-224 0-406 182-406 406s182 406 406 406 406-182 406-406-182-406-406-406z" horiz-adv-x="1000" />

<glyph glyph-name="circle-left" unicode="&#xe817;" d="M703 413l-172 0v109c0 19-11 35-28 43-17 7-37 4-50-9l-188-173c-9-9-15-21-15-35 1-15 6-25 15-34l188-171c14-12 33-15 50-8s28 25 28 43l0 109 172 1c26 0 47 20 47 46v32c0 25-21 47-47 47z m-203 437c-276 0-500-224-500-500s224-500 500-500 500 224 500 500-224 500-500 500z m0-906c-224 0-406 182-406 406s182 406 406 406 406-182 406-406-182-406-406-406z" horiz-adv-x="1000" />

<glyph glyph-name="circle-pause" unicode="&#xe818;" d="M391 538c-26 0-47-22-47-47v-282c0-26 21-46 47-46s47 20 47 46v282c0 25-21 47-47 47z m218 0c-25 0-46-22-46-47v-282c0-25 21-46 46-46s47 21 47 46v282c0 25-21 47-47 47z m-109 312c-276 0-500-224-500-500s224-500 500-500 500 224 500 500-224 500-500 500z m0-906c-224 0-406 182-406 406s182 406 406 406 406-182 406-406-182-406-406-406z" horiz-adv-x="1000" />

<glyph glyph-name="circle-play" unicode="&#xe819;" d="M368 563c14 8 33 10 47-1l281-172c14-9 23-24 23-40 0-16-9-31-23-40l-281-172c-14-9-33-9-47-1-15 9-24 24-24 41v346c0 15 9 31 24 39v0z m632-213c0-276-224-500-500-500-276 0-500 224-500 500 0 276 224 500 500 500 276 0 500-224 500-500z m-500 406c-224 0-406-182-406-406 0-224 182-406 406-406 224 0 406 182 406 406 0 224-182 406-406 406z" horiz-adv-x="1000" />

<glyph glyph-name="circle-question" unicode="&#xe81a;" d="M500 850c-276 0-500-224-500-500s224-500 500-500 500 224 500 500-224 500-500 500z m0-906c-224 0-406 182-406 406s182 406 406 406 406-182 406-406-182-406-406-406z m0 250c-35 0-62-28-62-63s25-62 62-62c33 0 63 27 63 62s-30 63-63 63z m65 406h-100c-76 0-137-60-137-137 0-25 22-47 47-47s47 22 47 47c0 24 18 43 41 43h100c25 0 46-19 46-43 0-15-7-27-21-35l-111-68c-16-10-24-26-24-41v-31c0-26 22-47 47-47s47 21 47 47v3l88 55c41 26 66 70 66 117 2 77-58 137-136 137z" horiz-adv-x="1000" />

<glyph glyph-name="circle-right" unicode="&#xe81b;" d="M547 557c-14 12-35 15-50 8s-30-25-30-41l0-110-170-1c-26 0-47-22-47-47v-32c0-26 21-46 47-46l172 1v-109c0-19 11-36 28-43 17-7 37-4 50 9l188 173c10 7 15 20 15 33-1 15-6 25-15 34l-188 171z m-47 293c-276 0-500-224-500-500s224-500 500-500 500 224 500 500-224 500-500 500z m0-906c-224 0-406 182-406 406s182 406 406 406 406-182 406-406-182-406-406-406z" horiz-adv-x="1000" />

<glyph glyph-name="circle-stop" unicode="&#xe81c;" d="M641 538h-282c-25 0-46-22-46-47v-282c0-25 21-46 46-46h282c25 0 47 21 47 46v282c0 25-22 47-47 47z m-141 312c-276 0-500-224-500-500s224-500 500-500 500 224 500 500-224 500-500 500z m0-906c-224 0-406 182-406 406s182 406 406 406 406-182 406-406-182-406-406-406z" horiz-adv-x="1000" />

<glyph glyph-name="circle-up" unicode="&#xe81d;" d="M533 585c-9 10-21 15-35 15-15-1-27-6-34-15l-170-188c-13-14-16-33-9-50 8-17 25-28 41-28h110l2-172c0-26 21-47 46-47h32c26 0 45 21 45 47l0 172h109c19 0 36 11 43 28 8 17 4 37-8 50l-172 188z m-33 265c-276 0-500-224-500-500s224-500 500-500 500 224 500 500-224 500-500 500z m0-906c-224 0-406 182-406 406s182 406 406 406 406-182 406-406-182-406-406-406z" horiz-adv-x="1000" />

<glyph glyph-name="restaurant-outline-thin" unicode="&#xe81e;" d="M779-108c-25 0-50 8-66 29l-175 179c-17 17-25 38-25 58v13c0 4 0 12-5 17 0 4-4 8-8 12l-21 21c-4 4-12 8-16 8-9 0-13 0-21 0-21-4-42-4-63 0-21 4-37 17-54 29l-167 167c-62 67-104 154-104 233 0 46 17 88 42 113 8 8 25 8 33 0l721-721c17-17 29-42 29-67 0-25-8-50-29-66-21-17-46-25-71-25z m-329 379c8 0 13 0 21-4 12-4 25-13 37-21l21-21c9-8 17-17 21-29 4-13 8-21 8-33v-13c0-12 5-21 13-29l175-179c17-17 50-17 71 0 8 8 16 20 16 33 0 12-4 25-16 33l-704 713c-9-21-13-42-13-63 0-66 38-145 96-204l167-166c8-9 20-17 33-17 12-4 25-4 37 0 5 0 13 0 17 0z m-308-379c-25 0-54 12-71 29-21 16-29 41-29 71 0 25 12 54 29 71l167 162c8 8 25 8 33 0 8-8 8-25 0-33l-167-163c-8-8-16-25-16-37 0-17 4-30 16-38 21-21 59-21 79 0l192 192c8 8 25 8 33 0 9-8 9-25 0-33l-195-196c-21-17-46-25-71-25z m483 500c-4 0-12 4-17 8-8 8-8 25 0 33l21 21c4 4 13 9 17 13 8 4 12 4 21 4h29c12 0 25 4 37 8 13 4 25 13 34 21l150 150c8 8 25 8 33 0 8-8 8-25 0-33l-150-150c-12-13-29-25-50-34-17-8-37-12-58-12h-29c0 0-5-4-5-4l-20-21c0-4-9-4-13-4z m-62 62c-5 0-13 4-17 9-8 8-8 25 0 33l21 21 4 4v29c0 21 4 38 12 58 9 17 17 34 34 50l150 150c8 9 25 9 33 0 8-8 8-25 0-33l-150-150c-12-12-21-25-25-37-4-13-8-25-8-38v-29c0-8 0-13-4-21-5-8-9-12-13-17l-21-20c-4-9-12-9-16-9z m141 75c-4 0-12 4-16 9-9 8-9 25 0 33l154 154c8 8 25 8 33 0 8-8 8-25 0-33l-158-159c0 0-9-4-13-4z" horiz-adv-x="1000" />

<glyph glyph-name="circle-xmark" unicode="&#xe81f;" d="M342 508c18 18 48 18 64 0l92-92 94 92c18 18 48 18 64 0 20-18 20-48 0-64l-90-92 90-94c20-18 20-48 0-64-16-20-46-20-64 0l-94 90-92-90c-16-20-46-20-64 0-18 16-18 46 0 64l92 94-92 92c-18 16-18 46 0 64v0z m658-158c0-276-224-500-500-500-276 0-500 224-500 500 0 276 224 500 500 500 276 0 500-224 500-500z m-500 406c-224 0-406-182-406-406 0-224 182-406 406-406 224 0 406 182 406 406 0 224-182 406-406 406z" horiz-adv-x="1000" />

<glyph glyph-name="circle" unicode="&#xe820;" d="M1000 350c0-276-224-500-500-500-276 0-500 224-500 500 0 276 224 500 500 500 276 0 500-224 500-500z m-500 406c-224 0-406-182-406-406 0-224 182-406 406-406 224 0 406 182 406 406 0 224-182 406-406 406z" horiz-adv-x="1000" />

<glyph glyph-name="clock" unicode="&#xe821;" d="M453 616c0 26 21 47 47 47 26 0 47-21 47-47v-241l167-111c21-14 27-43 11-65-13-21-42-27-63-11l-188 125c-13 7-21 21-21 39l0 264z m47 234c276 0 500-224 500-500 0-276-224-500-500-500-276 0-500 224-500 500 0 276 224 500 500 500z m-406-500c0-224 182-406 406-406 224 0 406 182 406 406 0 224-182 406-406 406-224 0-406-182-406-406z" horiz-adv-x="1000" />

<glyph glyph-name="clone" unicode="&#xe822;" d="M125-56h438c17 0 31 14 31 31v125h94v-125c0-69-57-125-125-125h-438c-69 0-125 56-125 125v438c0 68 56 125 125 125h125v-94h-125c-17 0-31-14-31-31v-438c0-17 14-31 31-31z m188 781c0 69 56 125 125 125h437c69 0 125-56 125-125v-437c0-69-56-125-125-125h-437c-69 0-125 56-125 125v437z m125-469h437c17 0 31 14 31 32v437c0 17-14 31-31 31h-437c-18 0-32-14-32-31v-437c0-18 14-32 32-32z" horiz-adv-x="1000" />

<glyph glyph-name="closed-captioning" unicode="&#xe823;" d="M1000 788h-875c-69 0-125-56-125-125v-625c0-70 56-126 125-126h875c69 0 125 56 125 126v625c0 69-56 125-125 125z m31-750c0-18-14-32-31-32h-875c-17 0-31 14-31 32v625c0 17 14 31 31 31h875c17 0 31-14 31-31v-625z m-569 378c18-18 48-18 66 0 19 19 19 48 0 67-73 73-192 73-265 0-35-36-55-83-55-133s18-97 55-133c37-36 85-54 133-54s96 18 132 54c18 19 18 48 0 67-18 18-48 18-66 0-37-37-96-37-133 0-17 17-27 41-27 66s10 49 27 66c37 37 96 37 133 0z m375 0c18-18 48-18 66 0 19 19 19 48 0 67-73 73-192 73-265 0-35-36-55-83-55-133s18-97 55-133c37-36 85-54 133-54s96 18 132 54c18 19 18 48 0 67-18 18-48 18-66 0-37-37-96-37-133 0-17 17-27 41-27 66s10 49 27 66c37 37 96 37 133 0z" horiz-adv-x="1125" />

<glyph glyph-name="compass" unicode="&#xe824;" d="M599 215l-282-108c-39-15-75 22-60 60l108 282c6 17 19 30 36 36l282 108c38 15 75-20 60-60l-108-282c-6-17-19-30-36-36v0z m-101 198c-33 0-62-28-62-63 0-35 29-62 62-62 37 0 65 27 65 62 0 35-28 63-65 63v0z m502-63c0-276-224-500-500-500-276 0-500 224-500 500 0 276 224 500 500 500 276 0 500-224 500-500z m-500 406c-224 0-406-182-406-406 0-224 182-406 406-406 224 0 406 182 406 406 0 224-182 406-406 406z" horiz-adv-x="1000" />

<glyph glyph-name="copyright" unicode="&#xe825;" d="M500 850c-276 0-500-224-500-500s224-500 500-500 500 224 500 500-224 500-500 500z m0-906c-224 0-406 182-406 406s182 406 406 406 406-182 406-406-182-406-406-406z m-2 562c0 0 0 0 0 0 41 0 80-16 109-45 19-19 48-19 67-1 18 19 18 48 0 67-47 47-109 73-176 73 0 0 0 0 0 0-66 0-129-26-175-73-97-98-97-256 0-354 46-47 109-73 175-73 0 0 0 0 0 0 67 0 129 26 176 73 18 19 18 48 0 67-19 18-48 18-67-1-29-29-68-45-109-45 0 0 0 0 0 0-41 0-80 16-109 45-60 61-60 161 0 222 29 29 68 45 109 45z" horiz-adv-x="1000" />

<glyph glyph-name="envelope-open" unicode="&#xe826;" d="M964 532c-48 38-89 69-321 237-32 24-97 81-142 81h-2c-45 0-110-57-142-81-232-168-272-199-321-237-23-18-36-45-36-74v-483c0-69 56-125 125-125h750c69 0 125 56 125 125v483c0 29-13 56-36 74z m-58-557c0-17-14-31-31-31h-750c-17 0-31 14-31 31v335l266-222c39-32 89-50 140-50s101 18 141 50l265 222v-335z m0 457l-325-270c-46-38-116-38-162 0l-325 270 0 26c45 36 83 64 318 236 6 4 13 9 21 15 15 12 49 38 67 46 18-8 52-34 67-46 8-6 15-11 21-16 235-170 273-199 318-235v-26z" horiz-adv-x="1000" />

<glyph glyph-name="eye-slash" unicode="&#xe827;" d="M294 669c87 67 198 119 331 119 158 0 284-72 376-158 92-85 153-184 182-256 6-15 6-33 0-48-27-63-79-152-156-231l205-161c20-16 24-46 8-66-16-20-45-24-66-8l-1156 906c-20 16-24 46-8 66 16 20 45 24 66 8l218-171z m77-60l90-70c44 38 101 61 164 61 138 0 250-112 250-250 0-41-10-80-28-115l105-82c66 67 114 144 139 197-28 60-78 142-154 212-80 74-185 134-312 134-99 0-185-37-254-87l0 0z m400-314c7 17 10 36 10 57 0 84-70 156-156 156-1 0-2-2-6-2 5-10 6-20 6-29 0-22-5-41-13-57l159-125z m19-255l82-64c-71-38-154-64-247-64-158 0-284 72-376 158-91 86-153 186-182 256-6 15-6 33 0 48 19 45 51 103 95 161l74-58c-37-46-61-91-77-125 27-61 79-144 154-213 80-75 185-133 312-133 60 0 115 13 165 34h0z m-415 312c0 4 0 9 1 15l109-87c21-41 59-72 105-81l110-88c-24-5-49-11-77-11-136 0-250 112-250 252h2z" horiz-adv-x="1250" />

<glyph glyph-name="eye" unicode="&#xe828;" d="M313 350c0 138 111 250 250 250 138 0 250-112 250-250 0-138-112-250-250-250-139 0-250 112-250 250z m250-156c86 0 156 70 156 156 0 86-70 156-156 156-2 0-3 0-6 0 4-10 6-20 6-31 0-69-57-125-125-125-11 0-22 1-32 6 0-3 0-5 0-4 0-88 70-158 157-158l0 0z m-377 436c92 86 219 158 377 158 157 0 284-72 376-158 91-85 152-184 181-256 7-15 7-33 0-48-29-70-90-170-181-256-92-86-219-158-376-158-158 0-285 72-377 158-91 86-152 186-181 256-7 15-7 33 0 48 29 72 90 171 181 256v0z m377 64c-128 0-232-58-313-132-75-70-127-152-153-212 26-59 78-142 153-211 81-75 185-133 313-133 127 0 232 58 312 133 75 69 125 152 154 211-29 60-79 142-154 212-80 74-185 132-312 132v0z" horiz-adv-x="1125" />

<glyph glyph-name="face-grin-tears" unicode="&#xe829;" d="M1015 197c6-16 16-35 32-52 8-8 16-14 25-20-83-163-252-275-449-275-193 0-362 112-444 275 8 6 17 12 24 20 16 17 26 36 33 52 2 6 4 11 6 17 56-157 206-270 381-270 179 0 329 113 385 270 2-6 4-11 7-17v0z m-392 561c-196 0-361-143-397-331-13 6-28 9-44 6-13-2-31-4-51-8 36 240 243 425 492 425 253 0 460-185 497-425-21 4-39 6-52 8-16 3-31 0-44-6-36 188-201 329-401 329v2z m-470-574c-36-31-90-28-125 6-37 37-37 96-1 132 16 17 58 29 98 40 25 3 50 7 66 10 11 1 20-8 16-18-4-42-20-137-48-165-2-2-4-4-6-5v0z m944 0c-2 1-5 2-5 4 0 0-1 1-1 1-28 28-44 123-50 165-1 10 7 19 18 18 2-1 4-1 6-1 16-3 38-6 58-9 42-11 84-23 100-40 36-36 36-95-1-132-36-34-89-37-125-6l0 0z m-472-113c-98 0-185 47-233 122-20 31 14 65 50 55 57-13 118-21 183-21 65 0 126 8 183 21 36 10 70-24 48-55-47-75-133-122-231-122z m-75 332l0 1c-1 0-1 1-2 2-1 1-3 3-5 6-5 6-12 13-20 22-17 13-37 25-56 25-15 0-35-12-52-25-9-9-15-16-20-22-3-3-6-5-6-6-2-1-1-2-1-2l0-1 0 0c-5-5-12-7-18-5-6 2-12 8-12 15 0 35 15 69 34 95 19 25 47 45 75 45 32 0 60-20 79-45 19-26 30-60 30-95 0-7-2-13-9-15-6-2-13 0-17 5l0 0z m313 0l0 0-1 1c0 0-1 1-1 2-2 1-3 3-6 6-5 6-11 13-20 22-17 13-37 25-54 25-17 0-37-12-54-25-8-9-15-16-20-22-2-3-6-5-5-6-3-1-1-2-2-2l0-1 0 0c-4-5-11-7-17-5-7 2-11 8-11 16 0 34 13 68 32 94 19 25 47 47 77 47 31 0 58-22 77-47 20-26 33-60 33-94 0-8-5-14-11-16-6-2-13 0-17 5v0z" horiz-adv-x="1250" />

<glyph glyph-name="face-grin-tongue-squint" unicode="&#xe82a;" d="M227 543c0 18 18 29 34 21l175-94c21-11 21-41 0-52l-175-94c-16-8-34 3-34 20 0 6 0 11 5 15l70 85-70 84c-5 4-5 10-5 15v0z m512 21c16 8 34-3 34-21 0-5-1-11-5-15l-70-84 70-85c4-4 5-9 5-15 0-17-18-28-34-20l-175 94c-21 11-21 41 0 52l175 94z m261-214c0-276-224-500-500-500-276 0-500 224-500 500 0 276 224 500 500 500 276 0 500-224 500-500z m-500 406c-224 0-406-182-406-406 0-160 92-298 226-364-5 16-7 34-7 52v45c-49 34-85 81-107 135-10 23 13 44 37 37 78-24 165-37 258-37 92 0 180 13 257 37 24 7 48-14 38-37-23-54-61-101-108-136v-44c0-18-3-36-8-52 134 66 226 204 226 366 0 222-182 406-406 406l0-2z m125-718v73c0 28-23 52-52 52h-4c-22 0-41-16-46-37-7-25-41-25-46 0-5 21-24 37-46 37h-4c-29 0-52-24-52-52v-73c0-69 56-126 125-126 69 0 125 57 125 126z" horiz-adv-x="1000" />

<glyph glyph-name="face-grin-tongue-wink" unicode="&#xe82b;" d="M312 420c-23 0-39-7-50-19-14-15-39-16-55-1-16 15-17 39-2 55 29 30 69 43 107 43 36 0 78-13 106-43 15-16 14-40-1-55-16-15-41-14-56 1-10 12-28 19-49 19z m298 24c0 26 21 47 47 47 26 0 47-21 47-47 0-26-21-47-47-47-26 0-47 21-47 47z m-110 0c0 86 70 156 156 156 87 0 157-70 157-156 0-87-70-156-157-156-86 0-156 69-156 156z m156-94c52 0 94 42 94 94 0 52-42 94-94 94-51 0-93-42-93-94 0-52 42-94 93-94z m-656 0c0 276 224 500 500 500 276 0 500-224 500-500 0-276-224-500-500-500-276 0-500 224-500 500z m680-364c134 66 226 204 226 364 0 224-182 406-406 406-224 0-406-182-406-406 0-160 92-298 226-364-5 16-7 34-7 52v102c-18 16-33 33-46 53-20 31 14 65 50 55 57-13 118-21 183-21 65 0 126 8 183 21 36 10 70-24 48-55-11-20-26-37-43-53v-102c0-18-3-36-8-52h0z m-55 52v73c0 28-23 52-52 52h-4c-22 0-41-16-46-37-7-25-41-25-46 0-5 21-24 37-46 37h-4c-29 0-52-24-52-52v-73c0-69 56-126 125-126 69 0 125 57 125 126z" horiz-adv-x="1000" />

<glyph glyph-name="face-flushed" unicode="&#xe82c;" d="M625 194c26 0 47-21 47-47 0-26-21-47-47-47h-250c-26 0-47 21-47 47 0 26 21 47 47 47h250z m-359 219c0 26 21 46 47 46 26 0 47-20 47-46 0-26-21-47-47-47-26 0-47 21-47 47z m-110 0c0 86 70 156 157 156 86 0 156-70 156-156 0-87-70-157-156-157-87 0-157 70-157 157z m157-94c51 0 93 42 93 94 0 51-42 93-93 93-52 0-94-42-94-93 0-52 42-94 94-94z m422 94c0-26-21-47-47-47-26 0-47 21-47 47 0 26 21 46 47 46 26 0 47-20 47-46z m109 0c0-87-70-157-156-157-87 0-157 70-157 157 0 86 70 156 157 156 86 0 156-70 156-156z m-156 93c-52 0-94-42-94-93 0-52 42-94 94-94 51 0 93 42 93 94 0 51-42 93-93 93z m312-156c0-276-224-500-500-500-276 0-500 224-500 500 0 276 224 500 500 500 276 0 500-224 500-500z m-500-406c224 0 406 182 406 406 0 224-182 406-406 406-224 0-406-182-406-406 0-224 182-406 406-406z" horiz-adv-x="1000" />

<glyph glyph-name="face-dizzy" unicode="&#xe82d;" d="M375 163c0 68 56 125 125 125 69 0 125-57 125-125 0-69-56-125-125-125-69 0-125 56-125 125z m-174 423c19 19 48 19 65 0l47-45 44 45c19 19 49 19 65 0 20-18 20-48 0-64l-43-47 43-45c20-18 20-48 0-65-16-19-46-19-65 0l-44 44-47-44c-17-19-46-19-65 0-18 17-18 47 0 65l45 45-45 47c-18 16-18 46 0 64v0z m375 0c19 19 48 19 65 0l47-45 44 45c19 19 49 19 65 0 20-18 20-48 0-64l-43-47 43-45c20-18 20-48 0-65-16-19-46-19-65 0l-44 44-47-44c-17-19-46-19-65 0-18 17-18 47 0 65l45 45-45 47c-18 16-18 46 0 64v0z m424-236c0-276-224-500-500-500-276 0-500 224-500 500 0 276 224 500 500 500 276 0 500-224 500-500z m-500 406c-224 0-406-182-406-406 0-224 182-406 406-406 224 0 406 182 406 406 0 224-182 406-406 406z" horiz-adv-x="1000" />

<glyph glyph-name="face-frown" unicode="&#xe82e;" d="M281 72c-24 8-37 35-28 59 34 95 136 157 247 157 112 0 213-62 247-157 9-24-4-51-28-59-24-9-51 3-60 28-18 50-78 94-159 94-80 0-141-44-159-94-9-25-36-37-60-28v0z m126 372c0-35-28-63-62-63-35 0-63 28-63 63 0 34 28 62 63 62 34 0 62-28 62-62z m188 0c0 34 28 62 62 62 34 0 63-28 63-62 0-35-29-63-63-63-34 0-62 28-62 63z m405-94c0-276-224-500-500-500-276 0-500 224-500 500 0 276 224 500 500 500 276 0 500-224 500-500z m-500 406c-224 0-406-182-406-406 0-224 182-406 406-406 224 0 406 182 406 406 0 224-182 406-406 406z" horiz-adv-x="1000" />

<glyph glyph-name="face-grimace" unicode="&#xe82f;" d="M672 288c60 0 109-49 109-110 0-60-49-109-109-109h-344c-60 0-109 49-109 109 0 61 49 110 109 110h344z m-344-63c-26 0-47-21-47-47 0-26 21-47 47-47h16v94h-16z m78-94h63v94h-63v-94z m188 94h-63v-94h63v94z m62-94h16c26 0 47 21 47 47 0 26-21 47-47 47h-16v-94z m-249 313c0-35-28-63-62-63-35 0-63 28-63 63 0 34 28 62 63 62 34 0 62-28 62-62z m188 0c0 34 28 62 62 62 34 0 63-28 63-62 0-35-29-63-63-63-34 0-62 28-62 63z m-595-94c0 276 224 500 500 500 276 0 500-224 500-500 0-276-224-500-500-500-276 0-500 224-500 500z m500 406c-224 0-406-182-406-406 0-224 182-406 406-406 224 0 406 182 406 406 0 224-182 406-406 406z" horiz-adv-x="1000" />

<glyph glyph-name="face-frown-open" unicode="&#xe830;" d="M350 129c-26-10-51 8-41 32 33 74 110 127 199 127 89 0 165-53 198-126 10-25-17-43-41-33-47 20-101 31-157 31-57 0-110-9-158-31l0 0z m57 315c0-35-28-63-62-63-35 0-63 28-63 63 0 34 28 62 63 62 34 0 62-28 62-62z m188 0c0 34 28 62 62 62 34 0 63-28 63-62 0-35-29-63-63-63-34 0-62 28-62 63z m405-94c0-276-224-500-500-500-276 0-500 224-500 500 0 276 224 500 500 500 276 0 500-224 500-500z m-500 406c-224 0-406-182-406-406 0-224 182-406 406-406 224 0 406 182 406 406 0 224-182 406-406 406z" horiz-adv-x="1000" />

<glyph glyph-name="face-grin-beam-sweat" unicode="&#xe831;" d="M906 600c-51 0-93 41-93 92 0 10 3 22 9 35 0 2 1 3 1 4 18 40 52 88 71 113 6 8 19 8 25 0 25-34 81-113 81-152 0-43-29-78-69-89-8-2-16-3-25-3l0 0z m-142 151c-7-15-14-37-14-59 0-6 1-16 2-23-70 55-157 87-252 87-224 0-406-182-406-406 0-224 182-406 406-406 224 0 406 182 406 406 0 71-18 138-50 196 16-6 33-8 50-8 19 0 37 3 54 9 26-61 40-127 40-197 0-276-224-500-500-500-276 0-500 224-500 500 0 276 224 500 500 500 100 0 194-30 272-80-3-7-6-13-8-19v0z m-264-680c-98 0-185 47-233 122-20 31 14 65 50 55 57-13 118-21 183-21 65 0 126 8 183 21 36 10 70-24 48-55-47-75-133-122-231-122z m-75 332l0 1c-1 0-1 1-2 2-1 1-3 3-5 6-5 6-12 13-20 22-17 13-37 25-54 25-17 0-37-12-54-25-9-9-15-16-20-22-3-3-6-5-6-6-2-1-1-2-1-2l0-1 0 0c-5-5-12-7-18-5-6 2-12 8-12 15 0 35 15 69 34 95 19 25 47 45 75 45 32 0 60-20 79-45 19-26 30-60 30-95 0-7-2-13-9-15-6-2-13 0-17 5l0 0z m313 0l0 0-1 1c0 0-1 1-1 2-2 1-3 3-6 6-5 6-11 13-20 22-17 13-37 25-54 25-17 0-37-12-54-25-8-9-15-16-20-22-2-3-6-5-5-6-3-1-1-2-2-2l0-1 0 0c-4-5-11-7-17-5-7 2-11 8-11 15 0 35 13 69 32 95 19 25 47 45 77 45 31 0 58-20 77-45 20-26 33-60 33-95 0-7-5-13-11-15-6-2-13 0-17 5v0z" horiz-adv-x="1000" />

<glyph glyph-name="face-grin-beam" unicode="&#xe832;" d="M683 248c36 10 70-24 48-55-47-75-133-122-231-122-98 0-185 47-233 122-20 31 14 65 50 55 57-13 118-21 183-21 65 0 126 8 183 21z m-258 155l0 0 0 1c-1 0-1 1-2 2-1 1-3 3-5 6-5 6-12 13-20 22-17 13-37 25-54 25-17 0-37-12-54-25-9-9-15-16-20-22-3-3-6-5-6-6-2-1-1-2-1-2l0-1 0 0c-5-5-12-7-18-5-6 2-11 8-11 15 0 35 14 69 33 95 19 25 47 45 77 45 30 0 58-20 77-45 19-26 32-60 32-95 0-7-4-13-11-15-6-2-13 0-17 5v0z m313 0l-1 1c0 0-1 1-1 2-2 1-3 3-6 6-5 6-11 13-20 22-17 13-37 25-54 25-17 0-37-12-54-25-8-9-15-16-20-22-2-3-6-5-5-6-3-1-1-2-2-2l0-1 0 0c-4-5-11-7-17-5-7 2-11 8-11 15 0 35 13 69 32 95 19 25 47 45 77 45 31 0 58-20 77-45 20-26 33-60 33-95 0-7-5-13-11-15-6-2-13 0-17 5l0 0z m262-53c0-276-224-500-500-500-276 0-500 224-500 500 0 276 224 500 500 500 276 0 500-224 500-500z m-500 406c-224 0-406-182-406-406 0-224 182-406 406-406 224 0 406 182 406 406 0 224-182 406-406 406z" horiz-adv-x="1000" />

<glyph glyph-name="face-grin-hearts" unicode="&#xe833;" d="M683 248c36 10 70-24 48-55-47-75-133-122-231-122-98 0-185 47-233 122-20 31 14 65 50 55 57-13 118-21 183-21 65 0 126 8 183 21z m-216 256l-35-129c-4-16-21-26-38-22l-127 34c-35 10-55 45-46 80 9 35 45 56 78 46l33-8 9 31c9 35 45 55 80 46 34-9 55-45 46-78h0z m201 1l31 8c35 10 71-11 80-46 9-35-11-70-46-80l-127-34c-17-4-34 6-38 22l-35 129c-9 33 12 69 47 78 34 9 70-11 79-46l9-31z m332-155c0-276-224-500-500-500-276 0-500 224-500 500 0 276 224 500 500 500 276 0 500-224 500-500z m-500 406c-224 0-406-182-406-406 0-224 182-406 406-406 224 0 406 182 406 406 0 224-182 406-406 406z" horiz-adv-x="1000" />

<glyph glyph-name="face-grin-squint-tears" unicode="&#xe834;" d="M834 822c37 38 99 37 137-1 38-38 39-100 1-137-29-29-128-46-172-53-13-1-20 8-19 19 7 44 24 143 53 172h0z m-688-118c163 162 410 189 601 81-4-9-6-19-8-28-7-23-11-48-15-68-157 105-372 87-511-52-139-139-156-353-52-511-20-4-45-7-68-14-9-3-19-5-28-8-108 190-81 437 81 600v0z m789-108c108-190 81-437-81-600-163-162-410-189-600-81 2 9 5 19 8 28 4 24 10 48 14 68 157-105 372-87 511 52 139 139 157 355 52 511 19 4 45 8 68 15 9 2 19 4 28 7l0 0z m-233-189c19 32 66 33 73-4 19-86-7-182-76-252-70-70-166-95-252-77-37 8-36 55-4 74 49 31 96 69 144 115 45 46 84 95 115 144l0 0z m-332-17c23 7 42-13 37-37l-58-191c-5-16-26-22-38-9-4 4-7 9-7 14l-10 110-110 10c-5 0-10 2-14 6-12 13-7 34 10 39l190 58z m194 276l9-110 110-10c6 0 10-3 14-6 13-13 8-34-9-39l-191-58c-24-5-44 14-37 37l58 190c5 17 26 22 39 10 4-4 6-9 7-14v0z m-536-650c29 29 128 47 172 53 11 1 20-6 19-19-7-44-24-143-53-172-37-38-99-37-137 1-38 38-39 100-1 137h0z" horiz-adv-x="1000" />

<glyph glyph-name="face-grin-squint" unicode="&#xe835;" d="M683 248c36 10 70-24 48-55-47-75-133-122-231-122-98 0-185 47-233 122-20 31 14 65 50 55 57-13 118-21 183-21 65 0 126 8 183 21z m-247 222c21-11 21-41 0-52l-175-94c-16-8-34 3-34 20 0 6 0 11 5 15l70 85-70 84c-5 4-5 10-5 15 0 18 18 29 34 21l175-94z m332 58l-70-84 70-85c4-4 5-9 5-15 0-17-18-28-34-20l-175 94c-21 11-21 41 0 52l175 94c16 8 34-3 34-21 0-5-1-11-5-15z m232-178c0-276-224-500-500-500-276 0-500 224-500 500 0 276 224 500 500 500 276 0 500-224 500-500z m-500 406c-224 0-406-182-406-406 0-224 182-406 406-406 224 0 406 182 406 406 0 224-182 406-406 406z" horiz-adv-x="1000" />

<glyph glyph-name="face-grin-stars" unicode="&#xe836;" d="M390 523l75-9c4-1 11-5 13-11 1-6 0-12-5-16l-54-52 14-74c1-6-2-12-7-15-4-4-11-4-16-1l-68 35-64-35c-5-3-12-3-17 1-5 3-9 9-6 15l14 74-55 52c-4 4-6 10-4 16 2 6 7 10 13 11l74 9 33 68c2 6 8 9 12 9 8 0 13-3 16-9l32-68z m313 0l74-9c4-1 11-5 13-11 2-6 0-12-4-16l-55-52 14-74c1-6-1-12-6-15-5-4-11-4-17-1l-66 35-66-35c-5-3-11-3-16 1-5 3-9 9-7 15l14 74-54 52c-5 4-6 10-4 16 1 6 6 10 12 11l75 9 32 68c3 6 8 9 14 9 6 0 12-3 14-9l33-68z m-20-275c36 10 70-24 48-55-47-75-133-122-231-122-98 0-185 47-233 122-20 31 14 65 50 55 57-13 118-21 183-21 65 0 126 8 183 21z m-683 102c0 276 224 500 500 500 276 0 500-224 500-500 0-276-224-500-500-500-276 0-500 224-500 500z m500-406c224 0 406 182 406 406 0 224-182 406-406 406-224 0-406-182-406-406 0-224 182-406 406-406z" horiz-adv-x="1000" />

<glyph glyph-name="face-grin-tongue" unicode="&#xe837;" d="M282 444c0 34 28 62 63 62 34 0 62-28 62-62 0-35-28-63-62-63-35 0-63 28-63 63z m438 0c0-35-29-63-63-63-34 0-62 28-62 63 0 34 28 62 62 62 34 0 63-28 63-62z m280-94c0-276-224-500-500-500-276 0-500 224-500 500 0 276 224 500 500 500 276 0 500-224 500-500z m-500 406c-224 0-406-182-406-406 0-160 92-298 226-364-5 16-7 34-7 52v102c-18 16-33 33-46 53-20 31 14 65 50 55 57-13 118-21 183-21 65 0 126 8 183 21 36 10 70-24 48-55-11-20-26-37-43-53v-102c0-18-3-36-8-52 134 66 226 204 226 364 0 224-182 406-408 406h2z m125-718v73c0 28-23 52-52 52h-4c-22 0-41-16-46-37-7-25-41-25-46 0-5 21-24 37-46 37h-4c-29 0-52-24-52-52v-73c0-69 56-126 125-126 69 0 125 57 125 126z" horiz-adv-x="1000" />

<glyph glyph-name="face-grin-wink" unicode="&#xe838;" d="M683 248c36 10 70-24 48-55-47-75-133-122-231-122-98 0-185 47-233 122-20 31 14 65 50 55 57-13 118-21 183-21 65 0 126 8 183 21z m-276 196c0-35-28-63-62-63-35 0-63 28-63 63 0 34 28 62 63 62 34 0 62-28 62-62z m144-44c-16 15-17 39-2 55 28 30 69 43 107 43 36 0 78-13 106-43 15-16 14-40-2-55-15-15-40-14-55 1-10 12-29 19-49 19-23 0-39-7-50-19-15-15-40-16-55-1z m449-50c0-276-224-500-500-500-276 0-500 224-500 500 0 276 224 500 500 500 276 0 500-224 500-500z m-500 406c-224 0-406-182-406-406 0-224 182-406 406-406 224 0 406 182 406 406 0 224-182 406-406 406z" horiz-adv-x="1000" />

<glyph glyph-name="face-grin" unicode="&#xe839;" d="M683 248c36 10 70-24 48-55-47-75-133-122-231-122-98 0-185 47-233 122-20 31 14 65 50 55 57-13 118-21 183-21 65 0 126 8 183 21z m-276 196c0-35-28-63-62-63-35 0-63 28-63 63 0 34 28 62 63 62 34 0 62-28 62-62z m188 0c0 34 28 62 62 62 34 0 63-28 63-62 0-35-29-63-63-63-34 0-62 28-62 63z m405-94c0-276-224-500-500-500-276 0-500 224-500 500 0 276 224 500 500 500 276 0 500-224 500-500z m-500 406c-224 0-406-182-406-406 0-224 182-406 406-406 224 0 406 182 406 406 0 224-182 406-406 406z" horiz-adv-x="1000" />

<glyph glyph-name="face-kiss-beam" unicode="&#xe83a;" d="M595 269c8-10 14-23 14-36 0-14-6-26-14-36-8-10-20-19-33-26-5-3-11-6-17-8 6-3 12-6 17-9 13-5 25-16 33-26 8-10 14-22 14-36 0-13-6-26-14-36-8-10-20-18-33-26-25-14-59-24-93-24-7 0-13 5-15 12-2 7 1 14 7 18l0 0 1 0c0 0 1 0 1 1 2 1 4 2 7 4 5 4 13 9 20 15 7 6 14 13 19 19 3 7 7 13 7 17 0 5-4 12-7 17-5 8-12 14-19 20-7 6-15 11-20 14-3 2-5 4-7 5 0 0-1 0-1 1l-1 2 0 0c-5 1-8 6-8 12 0 5 3 10 8 13l0 0 1 0c0 1 1 1 1 2 2 0 4 2 7 4 5 3 13 8 20 15 7 6 14 12 19 19 3 7 7 13 7 17 0 4-4 11-7 17-5 8-12 13-19 19-7 6-15 12-20 15-3 2-5 3-7 4 0 1-1 1-1 1l-1 2 0 0c-6 2-9 9-7 18 2 5 8 10 15 10 34 0 68-10 93-24 13-6 25-16 33-26l0 0z m-170 134l0 0 0 1c-1 0-1 1-2 2-1 1-3 3-5 6-5 6-12 13-20 22-17 13-37 25-54 25-17 0-37-12-54-25-9-9-15-16-20-22-3-3-6-5-6-6-2-1-1-2-1-2l0-1 0 0c-5-5-12-7-18-5-6 2-11 8-11 15 0 35 14 69 33 95 19 25 47 45 77 45 30 0 58-20 77-45 19-26 32-60 32-95 0-7-4-13-11-15-6-2-13 0-17 5v0z m313 0l-1 1c0 0-1 1-1 2-2 1-3 3-6 6-5 6-11 13-20 22-17 13-37 25-54 25-17 0-37-12-54-25-8-9-15-16-20-22-2-3-6-5-5-6-3-1-1-2-2-2l0-1 0 0c-4-5-11-7-17-5-7 2-11 8-11 15 0 35 13 69 32 95 19 25 47 45 77 45 31 0 58-20 77-45 20-26 33-60 33-95 0-7-5-13-11-15-6-2-13 0-17 5l0 0z m262-53c0-276-224-500-500-500-276 0-500 224-500 500 0 276 224 500 500 500 276 0 500-224 500-500z m-500 406c-224 0-406-182-406-406 0-224 182-406 406-406 224 0 406 182 406 406 0 224-182 406-406 406z" horiz-adv-x="1000" />

<glyph glyph-name="face-kiss-wink-heart" unicode="&#xe83b;" d="M674-72c4-15 11-28 21-39-60-25-126-39-195-39-276 0-500 224-500 500 0 276 224 500 500 500 276 0 500-224 500-500 0-57-10-112-27-163-22 11-46 12-71 10-4 10-9 19-15 28 12 39 19 81 19 125 0 224-182 406-406 406-224 0-406-182-406-406 0-224 182-406 406-406 57 0 112 12 162 33l12-49z m-110 269c-8-10-20-19-33-26-5-3-11-6-17-8 6-3 12-6 17-9 13-5 25-16 33-26 8-10 14-22 14-36 0-13-6-26-14-36-8-10-20-18-33-26-26-14-59-24-93-24-7 0-14 5-15 12-2 7 1 14 7 18l0 0 0 0c1 0 1 0 2 1 2 1 4 2 7 4 5 4 13 9 20 15 7 6 14 13 19 19 3 7 6 13 6 17 0 5-3 12-6 17-5 8-12 14-19 20-7 6-15 11-20 14-3 2-5 4-7 5-1 0-1 0-2 1l0 2 0 0c-5 1-8 6-8 12 0 5 3 10 8 13l0 0 0 0c1 1 1 1 2 2 2 0 4 2 7 4 5 3 13 8 20 15 7 6 14 12 19 19 3 7 6 13 6 17 0 4-3 11-6 17-5 8-12 13-19 19-7 6-15 12-20 15-3 2-5 3-7 4-1 1-1 1-2 1l0 2 0 0c-6 2-9 9-7 18 1 5 8 10 15 10 34 0 67-10 93-24 13-6 25-16 33-26 8-10 14-23 14-36 0-14-6-26-14-36v0z m-282 247c0 34 28 62 63 62 34 0 62-28 62-62 0-35-28-63-62-63-35 0-63 28-63 63z m374-24c-23 0-39-7-50-19-15-15-40-16-55-1-16 15-17 39-2 55 28 30 69 43 107 43 36 0 78-13 106-43 15-16 14-40-2-55-15-15-40-14-55 1-10 12-29 19-49 19z m202-299l40 11c43 12 88-15 99-60 12-46-14-92-57-104l-166-47c-17-5-34 5-39 22l-45 175c-11 45 15 92 58 104 43 12 88-15 98-60l12-41z" horiz-adv-x="1000" />

<glyph glyph-name="face-kiss" unicode="&#xe83c;" d="M595 300c8-10 14-22 14-36 0-13-6-26-14-36-8-10-20-19-33-26-5-3-11-6-17-8 6-3 12-5 17-9 13-5 25-16 33-26 8-10 14-22 14-36 0-13-6-25-14-35-8-10-20-19-33-26-25-15-59-24-93-24-7 0-13 4-15 11-2 7 1 14 7 18l0 0 1 0c0 0 1 1 1 1 2 1 4 3 7 4 5 4 13 9 20 15 7 6 14 13 19 20 3 7 7 12 7 16 0 5-4 12-7 17-5 9-12 14-19 20-7 6-15 11-20 15-3 1-5 3-7 4l-1 1 0 0-1 2 0 0c-5 1-8 6-8 12 0 5 3 11 8 13l0 0 1 1c0 0 1 0 1 1 2 1 4 2 7 4 5 3 13 9 20 15 7 6 14 12 19 19 3 7 7 13 7 17 0 4-4 12-7 17-5 8-12 13-19 19-7 6-15 12-20 15-3 2-5 4-7 4 0 1-1 1-1 2l-1 2 0 0c-6 1-9 8-7 17 2 5 8 10 15 10 34 0 68-10 93-24 13-5 25-16 33-26v0z m-188 144c0-35-28-63-62-63-35 0-63 28-63 63 0 34 28 62 63 62 34 0 62-28 62-62z m188 0c0 34 28 62 62 62 34 0 63-28 63-62 0-35-29-63-63-63-34 0-62 28-62 63z m405-94c0-276-224-500-500-500-276 0-500 224-500 500 0 276 224 500 500 500 276 0 500-224 500-500z m-500 406c-224 0-406-182-406-406 0-224 182-406 406-406 224 0 406 182 406 406 0 224-182 406-406 406z" horiz-adv-x="1000" />

<glyph glyph-name="face-laugh-beam" unicode="&#xe83d;" d="M255 237c-8 26 14 51 40 51h417c28 0 50-25 42-51-35-106-132-184-250-184-117 0-216 78-249 184v0z m170 166l0 0 0 1c-1 0-1 1-2 2-1 1-3 3-5 6-5 6-12 13-20 22-17 13-37 25-54 25-17 0-37-12-54-25-9-9-15-16-20-22-3-3-6-5-6-6-2-1-1-2-1-2l0-1 0 0c-5-5-12-7-18-5-6 2-11 8-11 15 0 35 14 69 33 95 19 25 47 45 77 45 30 0 58-20 77-45 19-26 32-60 32-95 0-7-4-13-11-15-6-2-13 0-17 5v0z m313 0l-1 1c0 0-1 1-1 2-2 1-3 3-6 6-5 6-11 13-20 22-17 13-37 25-54 25-17 0-37-12-54-25-8-9-15-16-20-22-2-3-6-5-5-6-3-1-1-2-2-2l0-1 0 0c-4-5-11-7-17-5-7 2-11 8-11 15 0 35 13 69 32 95 19 25 47 45 77 45 31 0 58-20 77-45 20-26 33-60 33-95 0-7-5-13-11-15-6-2-13 0-17 5l0 0z m262-53c0-276-224-500-500-500-276 0-500 224-500 500 0 276 224 500 500 500 276 0 500-224 500-500z m-500 406c-224 0-406-182-406-406 0-224 182-406 406-406 224 0 406 182 406 406 0 224-182 406-406 406z" horiz-adv-x="1000" />

<glyph glyph-name="face-laugh-squint" unicode="&#xe83e;" d="M255 237c-8 26 14 51 40 51h417c28 0 50-25 42-51-35-106-132-184-250-184-117 0-216 78-249 184v0z m181 264c21-11 21-41 0-52l-175-94c-16-8-34 3-34 21 0 5 0 10 5 15l70 84-70 84c-5 5-5 10-5 15 0 18 18 29 34 21l175-94z m332 58l-70-84 70-84c4-5 5-10 5-15 0-18-18-29-34-21l-175 94c-21 11-21 41 0 52l175 94c16 8 34-3 34-21 0-5-1-10-5-15v0z m232-209c0-276-224-500-500-500-276 0-500 224-500 500 0 276 224 500 500 500 276 0 500-224 500-500z m-500 406c-224 0-406-182-406-406 0-224 182-406 406-406 224 0 406 182 406 406 0 224-182 406-406 406z" horiz-adv-x="1000" />

<glyph glyph-name="face-laugh-wink" unicode="&#xe83f;" d="M255 237c-8 26 14 51 40 51h417c28 0 50-25 42-51-35-106-132-184-250-184-117 0-216 78-249 184v0z m152 238c0-35-28-62-62-62-35 0-63 27-63 62 0 35 28 63 63 63 34 0 62-28 62-63z m144-44c-16 15-17 39-2 55 28 30 69 44 107 44 36 0 78-14 106-44 15-16 14-40-2-55-15-15-40-14-55 2-10 11-29 19-49 19-23 0-39-8-50-19-15-16-40-17-55-2z m449-81c0-276-224-500-500-500-276 0-500 224-500 500 0 276 224 500 500 500 276 0 500-224 500-500z m-500 406c-224 0-406-182-406-406 0-224 182-406 406-406 224 0 406 182 406 406 0 224-182 406-406 406z" horiz-adv-x="1000" />

<glyph glyph-name="face-laugh" unicode="&#xe840;" d="M255 237c-8 26 14 51 40 51h417c28 0 50-25 42-51-35-106-132-184-250-184-117 0-216 78-249 184v0z m152 238c0-35-28-62-62-62-35 0-63 27-63 62 0 35 28 63 63 63 34 0 62-28 62-63z m188 0c0 35 28 63 62 63 34 0 63-28 63-63 0-35-29-62-63-62-34 0-62 27-62 62z m405-125c0-276-224-500-500-500-276 0-500 224-500 500 0 276 224 500 500 500 276 0 500-224 500-500z m-500 406c-224 0-406-182-406-406 0-224 182-406 406-406 224 0 406 182 406 406 0 224-182 406-406 406z" horiz-adv-x="1000" />

<glyph glyph-name="face-meh-blank" unicode="&#xe841;" d="M407 444c0-35-28-63-62-63-35 0-63 28-63 63 0 34 28 62 63 62 34 0 62-28 62-62z m188 0c0 34 28 62 62 62 34 0 63-28 63-62 0-35-29-63-63-63-34 0-62 28-62 63z m-595-94c0 276 224 500 500 500 276 0 500-224 500-500 0-276-224-500-500-500-276 0-500 224-500 500z m500 406c-224 0-406-182-406-406 0-224 182-406 406-406 224 0 406 182 406 406 0 224-182 406-406 406z" horiz-adv-x="1000" />

<glyph glyph-name="face-meh" unicode="&#xe842;" d="M282 444c0 34 28 62 63 62 34 0 62-28 62-62 0-35-28-63-62-63-35 0-63 28-63 63z m438 0c0-35-29-63-63-63-34 0-62 28-62 63 0 34 28 62 62 62 34 0 63-28 63-62z m-79-235c26 0 47-20 47-46 0-26-21-47-47-47h-282c-26 0-46 21-46 47 0 26 20 46 46 46h282z m359 141c0-276-224-500-500-500-276 0-500 224-500 500 0 276 224 500 500 500 276 0 500-224 500-500z m-500-406c224 0 406 182 406 406 0 224-182 406-406 406-224 0-406-182-406-406 0-224 182-406 406-406z" horiz-adv-x="1000" />

<glyph glyph-name="face-grin-wide" unicode="&#xe843;" d="M683 248c36 10 70-24 48-55-47-75-133-122-231-122-98 0-185 47-233 122-20 31 14 65 50 55 57-13 118-21 183-21 65 0 126 8 183 21z m-245 227c0-69-28-125-63-125-35 0-62 56-62 125 0 69 27 125 62 125 35 0 63-56 63-125z m125 0c0 69 27 125 62 125 35 0 63-56 63-125 0-69-28-125-63-125-35 0-62 56-62 125z m437-125c0-276-224-500-500-500-276 0-500 224-500 500 0 276 224 500 500 500 276 0 500-224 500-500z m-500 406c-224 0-406-182-406-406 0-224 182-406 406-406 224 0 406 182 406 406 0 224-182 406-406 406z" horiz-adv-x="1000" />

<glyph glyph-name="face-sad-cry" unicode="&#xe844;" d="M312 420c-23 0-39-7-50-19-14-15-39-16-57-1-14 15-15 39 0 55 29 30 69 43 107 43 36 0 78-13 106-43 15-16 14-40-1-55-16-15-41-14-56 1-10 12-28 19-49 19z m270-20c-16 15-17 39-2 55 29 30 69 43 107 43 36 0 78-13 106-43 15-16 14-40-1-55-16-15-41-14-56 1-10 12-28 19-49 19-23 0-39-7-50-19-14-15-39-16-55-1z m-176-175c0 52 42 94 94 94 52 0 94-42 94-94v-62c0-52-42-94-94-94-52 0-94 42-94 94v62z m-406 125c0 276 224 500 500 500 276 0 500-224 500-500 0-276-224-500-500-500-276 0-500 224-500 500z m781-293c77 74 125 180 125 293 0 224-182 406-406 406-224 0-406-182-406-406 0-113 48-219 125-293v231c0 26 21 46 47 46 26 0 47-20 47-46v-299c56-29 119-45 187-45 68 0 131 16 188 45v299c0 26 20 46 46 46 26 0 47-20 47-46v-231z" horiz-adv-x="1000" />

<glyph glyph-name="face-sad-tear" unicode="&#xe845;" d="M331 281c7 9 19 9 25 0 26-34 80-113 80-152 0-50-40-91-94-91-50 0-94 41-94 91 0 39 58 118 83 152h0z m388-108c19-17 21-47 4-67-18-19-47-20-68-3-40 37-95 60-155 60-26 0-47 20-47 46 0 26 21 47 47 47 84 0 161-31 219-83l0 0z m-63 333c34 0 62-28 62-62 0-35-28-63-62-63-37 0-63 28-63 63 0 34 26 62 63 62z m-313-125c-36 0-62 28-62 63 0 34 26 62 62 62 35 0 63-28 63-62 0-35-28-63-63-63z m157 469c276 0 500-224 500-500 0-276-224-500-500-500-276 0-500 224-500 500 0 276 224 500 500 500z m-156-875c48-20 101-31 156-31 224 0 406 182 406 406 0 224-182 406-406 406-224 0-406-182-406-406 0-103 38-197 101-268 21-63 80-107 149-107v0z" horiz-adv-x="1000" />

<glyph glyph-name="face-smile-beam" unicode="&#xe846;" d="M500 163c73 0 123 34 153 66 18 19 47 20 66 2 19-17 21-47 3-66-43-46-117-96-222-96-105 0-179 50-222 96-17 19-18 49 3 66 19 18 49 17 66-2 30-32 80-66 153-66z m-75 240l0 0 0 1c-1 0-1 1-2 2-1 1-3 3-5 6-5 6-12 13-20 22-17 13-37 25-54 25-17 0-37-12-54-25-9-9-15-16-20-22-3-3-6-5-6-6-2-1-1-2-1-2l0-1 0 0c-5-5-12-7-18-5-6 2-11 8-11 15 0 35 14 69 33 95 19 25 47 45 77 45 30 0 58-20 77-45 19-26 32-60 32-95 0-7-4-13-11-15-6-2-13 0-17 5v0z m313 0l-1 1c0 0-1 1-1 2-2 1-3 3-6 6-5 6-11 13-20 22-17 13-37 25-54 25-17 0-37-12-54-25-8-9-15-16-20-22-2-3-6-5-5-6-3-1-1-2-2-2l0-1 0 0c-4-5-11-7-17-5-7 2-11 8-11 15 0 35 13 69 32 95 19 25 47 45 77 45 31 0 58-20 77-45 20-26 33-60 33-95 0-7-5-13-11-15-6-2-13 0-17 5l0 0z m262-53c0-276-224-500-500-500-276 0-500 224-500 500 0 276 224 500 500 500 276 0 500-224 500-500z m-500 406c-224 0-406-182-406-406 0-224 182-406 406-406 224 0 406 182 406 406 0 224-182 406-406 406z" horiz-adv-x="1000" />

<glyph glyph-name="face-smile-wink" unicode="&#xe847;" d="M500 163c73 0 123 34 153 66 18 19 47 20 66 2 19-17 21-47 3-66-43-46-117-96-222-96-105 0-179 50-222 96-17 19-18 49 3 66 19 18 49 17 66-2 30-32 80-66 153-66z m-93 281c0-35-28-63-62-63-35 0-63 28-63 63 0 34 28 62 63 62 34 0 62-28 62-62z m144-44c-16 15-17 39-2 55 28 30 69 43 107 43 36 0 78-13 106-43 15-16 14-40-2-55-15-15-40-14-55 1-10 12-29 19-49 19-23 0-39-7-50-19-15-15-40-16-55-1z m449-50c0-276-224-500-500-500-276 0-500 224-500 500 0 276 224 500 500 500 276 0 500-224 500-500z m-500 406c-224 0-406-182-406-406 0-224 182-406 406-406 224 0 406 182 406 406 0 224-182 406-406 406z" horiz-adv-x="1000" />

<glyph glyph-name="face-smile" unicode="&#xe848;" d="M500 163c73 0 123 34 153 66 18 19 47 20 66 2 19-17 21-47 3-66-43-46-117-96-222-96-105 0-179 50-222 96-17 19-18 49 3 66 19 18 49 17 66-2 30-32 80-66 153-66z m-93 281c0-35-28-63-62-63-35 0-63 28-63 63 0 34 28 62 63 62 34 0 62-28 62-62z m188 0c0 34 28 62 62 62 34 0 63-28 63-62 0-35-29-63-63-63-34 0-62 28-62 63z m405-94c0-276-224-500-500-500-276 0-500 224-500 500 0 276 224 500 500 500 276 0 500-224 500-500z m-500 406c-224 0-406-182-406-406 0-224 182-406 406-406 224 0 406 182 406 406 0 224-182 406-406 406z" horiz-adv-x="1000" />

<glyph glyph-name="face-tired" unicode="&#xe849;" d="M345 224c38 36 92 64 155 64 63 0 117-28 155-64 37-34 64-81 64-124 0-10-5-20-14-26-9-6-20-7-30-3l-34 15c-44 20-92 30-141 30-49 0-97-10-141-30l-34-15c-10-4-21-3-30 3-8 6-14 16-14 26 0 43 27 90 64 124z m91 246c21-11 21-41 0-52l-175-94c-16-8-34 3-34 20 0 6 0 11 5 15l70 85-70 84c-5 4-5 10-5 15 0 18 18 29 34 21l175-94z m332 58l-70-84 70-85c4-4 5-9 5-15 0-17-18-28-34-20l-175 94c-21 11-21 41 0 52l175 94c16 8 34-3 34-21 0-5-1-11-5-15z m232-178c0-276-224-500-500-500-276 0-500 224-500 500 0 276 224 500 500 500 276 0 500-224 500-500z m-500 406c-224 0-406-182-406-406 0-224 182-406 406-406 224 0 406 182 406 406 0 224-182 406-406 406z" horiz-adv-x="1000" />

<glyph glyph-name="face-rolling-eyes" unicode="&#xe84a;" d="M328 116c0 26 21 47 47 47h250c26 0 47-21 47-47 0-26-21-47-47-47h-250c-26 0-47 21-47 47z m-172 297c0 86 70 156 157 156 86 0 156-70 156-156 0-87-70-157-156-157-87 0-157 70-157 157z m157-94c51 0 93 42 93 94 0 27-12 53-31 70 0-3 0-5 0-8 0-35-28-62-62-62-35 0-63 27-63 62 0 3 0 5 0 8-19-17-31-43-31-70 0-52 42-94 94-94v0z m218 94c0 86 70 156 157 156 86 0 156-70 156-156 0-87-70-157-156-157-87 0-157 70-157 157z m157-94c51 0 93 42 93 94 0 27-12 53-31 70 0-3 0-5 0-8 0-35-28-62-62-62-35 0-63 27-63 62 0 3 0 5 0 8-19-17-31-43-31-70 0-52 42-94 94-94z m-688 31c0 276 224 500 500 500 276 0 500-224 500-500 0-276-224-500-500-500-276 0-500 224-500 500z m500-406c224 0 406 182 406 406 0 224-182 406-406 406-224 0-406-182-406-406 0-224 182-406 406-406z" horiz-adv-x="1000" />

<glyph glyph-name="folder-open" unicode="&#xe84b;" d="M1118 322l-187-375c-11-21-32-35-58-35h-748c-69 0-125 56-125 126v625c0 69 56 125 125 125h230c33 0 64-14 88-37l96-88h274c69 0 125-56 125-125v-63h-94v63c0 17-14 31-31 31h-313l-123 116c-6 6-14 9-22 9h-230c-17 0-31-14-31-31v-563l139 278c10 21 32 35 56 35h774c46 0 76-49 55-91z" horiz-adv-x="1125" />

<glyph glyph-name="folder" unicode="&#xe84c;" d="M873 663h-336l-94 88c-24 23-55 37-88 37h-232c-69 0-125-56-125-125v-625c0-70 56-126 125-126h750c69 0 125 56 125 126v500c0 68-54 125-125 125z m32-625c0-18-14-32-32-32h-750c-17 0-31 14-31 32v625c0 17 14 31 31 31h230c8 0 16-3 22-9l123-116h375c18 0 32-14 32-31v-500z" horiz-adv-x="1000" />

<glyph glyph-name="hand-back-fist" unicode="&#xe84d;" d="M737 717c-25 34-66 55-110 55h-26c-7 0-14-1-21-2-24 19-53 29-85 29h-26c-8 0-16 0-23-2-23 32-60 53-102 53h-31c-69 0-125-56-125-125v-97l-65-58c-38-32-60-80-60-132v-154c0-63 33-121 87-151l69-39v-197c0-26 21-47 45-47s49 21 49 47v254c-3 1-6 1-8 3l-109 61c-25 14-40 40-40 69v154c0 24 11 47 29 61l34 31v-86c0-17 14-31 31-31s31 14 31 31v281c0 17 14 31 32 31h31c17 0 31-14 31-31v-31c0-19 16-32 32-32 12 0 24 8 28 20 1 2 11 24 34 24h26c41 0 35-39 67-39 16 0 19 11 39 11h26c50 0 36-55 76-55 0 0 1 0 1 0l29 0c25 0 48-22 48-50v-254c0-71-38-132-93-164v-258c0-26 20-47 45-47s48 21 48 47v211c59 53 94 130 94 211v254c0 78-61 141-138 144z" horiz-adv-x="875" />

<glyph glyph-name="folder-closed" unicode="&#xe84e;" d="M875 663h-336l-96 88c-24 23-55 37-88 37h-230c-69 0-125-56-125-125v-625c0-70 56-126 125-126h750c69 0 125 56 125 126v500c0 68-56 125-125 125z m-750 31h230c8 0 16-3 22-9l123-116h375c17 0 31-14 31-31v-63h-812v188c0 17 14 31 31 31z m750-688h-750c-17 0-31 14-31 32v343h812v-343c0-18-14-32-31-32z" horiz-adv-x="1000" />

<glyph glyph-name="hand-peace" unicode="&#xe84f;" d="M805 538c-17 0-32-3-47-9-25 25-57 40-94 40-23 0-44-6-62-17l21 135c1 8 2 15 2 23 0 70-56 140-141 140-67 0-127-49-138-118l-7-43-9 19c-24 50-74 80-127 80-79 0-140-65-140-141 0-21 4-41 14-61l97-203c-48-22-80-71-80-125v-156c0-43 20-85 54-111l90-70c57-45 129-69 201-69l154 0c190-2 345 154 345 342v210c0 76-63 134-133 134z m-180-103c0 22 16 40 39 40 22 0 39-18 39-40v-108c0-22-17-39-39-39-23 0-39 17-39 39v108z m-141 321c24 0 47-18 47-46 0-3 0-6 0-8l-46-283c-15 6-31 11-48 11 0 0 0 0 0 0-8 0-17-1-26-3l-20-3 47 295c4 21 24 37 46 37z m-329-109c0 26 21 47 46 47 18 0 35-10 43-27l119-248-95-15-107 223c-3 6-6 13-6 20z m438-703l-154 0c-51 0-102 17-143 49l-90 70c-12 9-18 23-18 39v156c0 22 15 41 34 45l206 32c3-1 6 1 9 1 24 0 47-18 47-47 0-21-14-41-33-45l-113-17c-24-3-41-23-41-46 0-40 37-47 46-47 5 0 126 16 128 17 46 10 81 43 97 85 24-26 58-42 96-42 16 0 32 3 46 8 24-24 58-39 95-39 0 0 19 0 36 5-13-126-118-224-248-224z m251 352c0-22-18-40-39-40-22 0-39 18-39 40v108c0 22 15 40 39 40 21 0 39-18 39-40v-108z" horiz-adv-x="1000" />

<glyph glyph-name="hand-point-down" unicode="&#xe850;" d="M875 366v203c0 155-123 281-274 281h-211c-45 0-91-12-131-34l-109-62c-54-30-87-88-87-150v-98c0-53 24-100 62-132v-383c0-78 63-141 141-141s140 63 140 141v110c5-1 11-1 16-1 51 0 95 27 120 67 11-3 24-4 36-4 51 0 95 26 120 67 12-3 24-5 36-5 78 0 141 63 141 141z m-344 31c0 26 21 47 47 47s47-21 47-47v-94c0-26-21-47-47-47s-47 21-47 47v94z m-156-63h23c25 0 47 7 67 17 2-5 4-9 4-17v-93c0-26-21-47-47-47s-47 21-47 47v93z m-156 0c0 1 0 1 0 2 5 0 10-2 15-2h79v-343c0-26-22-47-47-47s-47 21-47 47v343z m558 274c-13 5-28 8-43 8-56 0-105-34-127-83-10 2-19 5-29 5-14 0-27-3-40-7-20 58-75 100-140 100h-101c-26 0-47-21-47-47s21-46 47-46h101c31 0 55-25 55-55s-24-55-55-55h-164c-43 0-78 35-78 78v98c0 29 15 55 40 69l109 61c26 15 56 22 85 22h211c86 0 159-63 176-148z m4-242c0-26-21-47-47-47s-46 21-46 47v109c0 26 21 47 46 47s47-21 47-47v-109z" horiz-adv-x="875" />

<glyph glyph-name="hand-point-left" unicode="&#xe851;" d="M516-88h203c155 0 281 123 281 275v210c0 46-12 92-34 132l-63 109c-29 54-88 87-149 87h-98c-53 0-100-24-132-62h-383c-78 0-141-64-141-141s63-141 141-141h110c-1-5-1-10-1-15 0-51 27-96 67-120-3-12-4-24-4-37 0-50 26-95 67-119-3-12-5-24-5-37 0-77 63-141 141-141z m31 344c26 0 47-21 47-47s-21-46-47-46h-94c-26 0-47 21-47 46s21 47 47 47h94z m-63 157v-24c0-24 7-47 17-67-5-2-11-3-17-3h-93c-26 0-47 21-47 47s21 47 47 47h93z m0 156c1 0 1 0 2-1 0-5-2-10-2-15v-78h-343c-26 0-47 21-47 47s21 47 47 47h343z m274-559c5 14 8 28 8 43 0 57-34 106-83 128 2 9 5 19 5 28 0 14-3 28-7 40 58 21 100 75 100 140v102c0 25-21 47-47 47s-46-22-46-47v-102c0-30-25-55-55-55s-55 25-55 55v164c0 43 35 78 78 78h98c29 0 55-15 69-39l61-109c14-26 22-56 22-86v-210c0-87-63-159-148-177z m-242-4c-26 0-47 21-47 47s21 47 47 47h109c26 0 47-21 47-47s-21-47-47-47h-109z" horiz-adv-x="1000" />

<glyph glyph-name="hand-point-right" unicode="&#xe852;" d="M625 53c0 13-2 25-5 37 41 24 68 69 68 119 0 13-2 25-5 37 40 25 67 69 67 120 0 5 0 10-1 15h110c78 0 141 63 141 141s-63 141-141 141h-383c-32 38-79 62-132 62h-98c-62 0-120-33-150-87l-61-109c-23-40-35-86-35-132v-210c0-152 126-275 281-275h203c78 0 141 64 141 141z m-78 203c26 0 47-21 47-47s-21-46-47-46h-94c-25 0-47 21-47 46s21 47 47 47h94z m62 157c26 0 47-22 47-47s-21-47-47-47h-93c-6 0-12 1-17 3 10 20 17 43 17 67v24h93z m250 156c26 0 47-21 47-47s-21-47-47-47h-343v78c0 5-1 10-2 15 1 0 1 1 2 1h343z m-765-382v210c0 30 8 60 22 86l62 109c13 24 40 39 68 39h98c43 0 78-35 78-78v-164c0-30-25-55-55-55s-54 25-54 55v102c0 25-21 47-47 47s-47-22-47-47v-102c0-65 42-120 100-140-4-12-6-26-6-40 0-9 2-19 4-28-49-22-83-69-83-128 0-15 3-29 8-43-85 18-148 90-148 177z m281-181c-26 0-47 21-47 47s21 47 47 47h109c26 0 47-21 47-47s-21-47-47-47h-109z" horiz-adv-x="1000" />

<glyph glyph-name="hand-pointer" unicode="&#xe853;" d="M406 288c-17 0-31-15-31-32v-187c0-17 14-31 31-31s32 14 32 31v187c0 17-15 32-32 32z m125 0c-17 0-31-15-31-32v-187c0-17 14-31 30-31s33 14 33 31l0 187c-2 17-15 32-32 32z m205 169c-27 34-68 54-111 54h-27c-7 0-14-1-21-2-25 19-55 29-86 29h-22v171c0 78-63 141-141 141-77 0-141-63-141-141v-329c-21 11-40 10-51 10-86 0-136-72-136-136 0-29 9-58 27-82l153-203c56-75 145-119 237-119h215c12 0 25 2 35 5 56 11 105 38 143 79 42 44 65 103 65 166v214c0 78-62 141-139 143z m45-357c0-39-14-75-40-102-24-27-56-44-97-52-4-2-9-2-12-2h-215c-63 0-124 30-162 81l-153 204c-5 7-8 16-8 25 0 32 28 42 42 42 9 0 24-3 34-17l55-73c6-8 15-12 25-12 23 0 31 21 31 31v484c0 26 21 47 45 47 26 0 47-21 47-47v-255c0-13 11-31 32-31 24 0 25 21 59 21h27c42 0 36-38 68-38 16 0 19 11 39 11h27c53 0 34-54 80-54l27 0c27 0 49-22 49-49v-214z m-125 188c-17 0-31-15-31-32v-187c0-17 14-31 31-31s32 14 32 31v187c0 17-15 32-32 32z" horiz-adv-x="875" />

<glyph glyph-name="hand-scissors" unicode="&#xe854;" d="M528-88h191c155 0 281 123 281 275v210c0 46-12 92-34 132l-62 109c-30 54-89 87-150 87h-92c-52 0-101-23-134-62l-30-37-249 90c-17 6-33 9-50 9-58 0-114-35-135-92-35-89 26-162 86-183l4-2-20-1c-75-5-134-68-134-142 0-78 65-141 144-141 4 0 7 0 11 0l173 12v-16c0-43 21-84 55-111 3-76 67-137 145-137z m-2 94c-28 0-51 22-51 48 0 0 0 28 0 29 0 14-8 28-21 32-20 7-34 25-34 45v27c0 33 27 32 27 58 0 18-15 31-31 31-1 0-2 0-2 0 0 0-270-18-271-18-28 0-51 21-51 47 0 26 21 47 47 48l319 22c5 1 29 6 29 32 0 13-8 25-21 29l-285 102c-14 7-33 20-33 45 0 22 18 48 51 48 6 0 12-1 18-3l457-166c4-1 7-2 11-2 17 0 31 15 31 30 0 12-8 24-20 29l-127 46 30 36c17 20 39 30 63 30h92c29 0 55-15 69-39l61-109c15-26 22-56 22-86v-210c0-100-84-181-187-181h-193z" horiz-adv-x="1000" />

<glyph glyph-name="hand-lizard" unicode="&#xe855;" d="M1000 202v-180c0-26-21-47-47-47-26 0-47 21-47 47v180c0 20-6 39-17 55l-231 333c-18 27-48 41-82 41h-472c-5 0-10-4-10-8-1-18 6-36 19-49 13-14 30-21 49-21h316c33 0 65-16 84-43 20-27 25-62 15-94l-19-57c-15-43-54-71-99-71h-188c-19 0-36-8-49-21-13-13-19-31-19-49 0-4 6-9 11-9h305c11 0 20-3 28-9l153-115c12-8 19-22 19-37l-2-26c0-26-21-47-47-47s-47 21-47 47v3l-119 91h-290c-56 0-103 44-105 99-1 44 15 85 46 117 29 32 72 49 116 49h188c4 0 8 3 10 7l19 58c1 4 0 7-2 9-1 2-4 4-8 4h-316c-45 0-86 18-116 50-31 31-47 73-46 117 2 55 49 99 104 99h474c63 0 121-31 157-82l231-333c22-32 34-69 34-108z" horiz-adv-x="1000" />

<glyph glyph-name="hand-spock" unicode="&#xe856;" d="M459 756c20 0 40-11 47-37l92-360c5-16 18-24 32-24 14 0 29 8 32 26l62 303c6 27 27 40 48 40 26 0 52-18 52-50 0-4-1-9-2-14l-56-272c0-2 0-4 0-6 0-17 14-27 29-27 11 0 23 6 26 21l48 204c1 2 8 38 48 38 26 0 52-18 52-48 0-4-1-9-2-14l-94-399c-26-113-127-193-243-193l-95 0c-80 0-156 30-214 85l-148 140c-12 10-17 21-17 35 0 27 25 52 52 52 11 0 23-4 33-14l100-94c4-3 7-5 11-5 8 0 16 7 16 16 0 46-7 93-20 137l-71 239c-1 4-2 10-2 15 0 30 26 48 52 48 20 0 40-11 47-36l61-206c4-15 16-21 27-21 15 0 31 11 31 28 0 3-1 5-1 8l-83 323c-1 5-2 10-2 14 0 30 26 48 52 48z m0 94c-65 0-146-49-146-142 0-5 1-11 1-17-60-5-133-54-133-141 0-14 2-29 7-43l47-160c-9 2-18 3-27 3-80 0-145-68-145-146 0-38 15-75 46-104l148-140c75-71 174-110 278-110l95 0c160 0 298 109 335 265l94 400c2 11 4 23 4 34 0 107-97 143-146 143-2 0-3 0-5 0-20 77-90 106-140 106-66 0-125-48-139-115l-10-45-26 104c-17 65-72 108-138 108z" horiz-adv-x="1125" />

<glyph glyph-name="handshake" unicode="&#xe857;" d="M989 602c-36 39-121 120-240 139-44 6-89-7-124-36-35 27-80 41-124 34-156-24-253-155-258-161-15-21-10-50 10-65 9-6 19-9 28-9 15 0 29 6 38 19 1 1 78 105 196 123 15 2 30-1 42-8l-113-116c-24-24-39-55-39-91 0-34 13-66 37-90 26-25 58-36 92-36s66 13 90 37l23 23 242-197c5-4 5-11 1-16l-54-70c-3-4-10-5-14-2l-43 37-51-55c-5-5-11-7-14-7-3 0-9 0-13 3l-63 54-31-28-6-6c-11-14-27-23-45-25-19-1-36 4-48 14l-175 158h-145v374l-188 0v-499l125 0c23 0 42 13 53 32h118l151-136c29-24 65-37 101-37 6 0 12 1 17 1 27 3 52 12 74 27l1-2c24-19 54-28 84-25 25 3 49 14 66 30 41-16 90-5 120 32l54 70c36 45 29 110-16 147l-235 191 17 16c18 18 18 48 0 66-19 18-48 18-67 0l-105-105c-13-13-35-13-48 0-6 6-10 15-10 24 0 9 4 18 10 25l168 171c15 15 36 23 57 19 116-18 195-122 196-123 6-8 14-14 23-17h109v-342c0-34 28-62 60-62l127-2v500l-261 2z m-895-439c-17 0-31 14-31 31 0 17 14 31 31 31s31-14 31-31c0-17-14-31-31-31z m1062 0c-17 0-31 14-31 31 0 17 14 31 31 31s32-14 32-31c0-17-15-31-32-31z" horiz-adv-x="1250" />

<glyph glyph-name="paper-plane" unicode="&#xe858;" d="M980 842c-15 10-34 11-50 2l-906-516c-16-9-25-25-24-43 1-18 12-34 29-41l299-125v-222c0-17 10-33 25-41 7-4 14-6 20-6 9 0 18 2 26 7l217 140 192-81c6-2 12-4 19-4 7 0 15 2 23 6 12 8 21 20 23 34l125 844c4 18-4 36-18 46z m-259-225l-365-408-203 85 568 323z m-301-634v96l91-38-91-58z m371 43l-345 145 438 487-93-632z" horiz-adv-x="1000" />

<glyph glyph-name="hand" unicode="&#xe859;" d="M797 694c-8 0-16-1-23-2-19 56-71 96-133 96-13 0-25-2-37-5-25 40-69 67-120 67-50 0-95-27-119-67-12 3-24 5-37 5-77 0-140-64-140-141v-238c-11 2-21 4-32 4 0 0 0 0 0 0-85 0-156-69-156-157 0-40 15-77 42-106l159-171c76-82 185-129 297-129h65c206 0 375 168 375 375v328c0 78-64 141-141 141z m47-469c0-155-126-281-280-281h-66c-87 0-170 36-229 99l-156 168c-12 13-18 30-18 45 0 43 36 61 61 61 17 0 34-7 46-20l52-56c3-2 8-3 11-3 8 0 16 6 16 16v393c0 26 21 47 45 47 26 0 45-21 45-47v-297c4-17 18-31 35-31s30 14 30 29l2 361c0 26 21 47 45 47 26 0 45-21 45-47v-359c3-17 17-31 35-31s31 14 31 29l0 298c0 25 21 46 45 46 26 0 45-21 45-46v-298c4-15 18-29 35-29s29 14 29 29v205c0 26 21 47 45 47 26 0 46-21 46-47v-328z" horiz-adv-x="1000" />

<glyph glyph-name="face-surprise" unicode="&#xe85a;" d="M282 444c0 34 28 62 63 62 34 0 62-28 62-62 0-35-28-63-62-63-35 0-63 28-63 63z m438 0c0-35-29-63-63-63-34 0-62 28-62 63 0 34 28 62 62 62 34 0 63-28 63-62z m-345-281c0 68 56 125 125 125 69 0 125-57 125-125 0-69-56-125-125-125-69 0-125 56-125 125z m625 187c0-276-224-500-500-500-276 0-500 224-500 500 0 276 224 500 500 500 276 0 500-224 500-500z m-500 406c-224 0-406-182-406-406 0-224 182-406 406-406 224 0 406 182 406 406 0 224-182 406-406 406z" horiz-adv-x="1000" />

<glyph glyph-name="pen-to-square" unicode="&#xe85b;" d="M729 801c55 55 144 55 199 0l23-23c55-55 55-144 0-199l-385-386c-17-16-38-29-61-35l-195-56c-17-5-34 0-46 13-12 11-17 28-12 45l56 195c6 23 19 44 35 61l386 385z m131-66c-17 18-47 18-65 0l-57-57 90-90 57 59c18 16 18 46 0 64l-25 24z m-462-406l-33-114 114 33c8 2 15 6 21 12l262 262-90 90-262-262c-6-6-10-13-12-21z m-7 396c26 0 47-21 47-47 0-26-21-47-47-47h-219c-43 0-78-35-78-78v-531c0-43 35-78 78-78h531c43 0 78 35 78 78v219c0 26 21 47 47 47 26 0 47-21 47-47v-219c0-95-77-172-172-172h-531c-95 0-172 77-172 172v531c0 95 77 172 172 172h219z" horiz-adv-x="1000" />

<glyph glyph-name="rectangle-xmark" unicode="&#xe85c;" d="M342 508c18 18 48 18 64 0l92-92 94 92c18 18 48 18 64 0 20-18 20-48 0-64l-90-92 90-94c20-18 20-48 0-64-16-20-46-20-64 0l-94 90-92-90c-16-20-46-20-64 0-18 16-18 46 0 64l92 94-92 92c-18 16-18 46 0 64v0z m-342 155c0 69 56 125 125 125h750c69 0 125-56 125-125v-625c0-69-56-126-125-126h-750c-69 0-125 57-125 126v625z m94 0v-625c0-18 14-32 31-32h750c17 0 31 14 31 32v625c0 17-14 31-31 31h-750c-17 0-31-14-31-31z" horiz-adv-x="1000" />

<glyph glyph-name="hand-point-up" unicode="&#xe85d;" d="M734 475c-12 0-24-2-36-5-25 41-69 68-120 68-12 0-25-2-36-5-25 40-69 67-120 67-5 0-11 0-16-1v110c0 78-63 141-140 141s-141-63-141-141v-383c-38-32-62-79-62-132v-98c0-62 33-120 87-150l109-62c40-22 86-34 131-34h211c151 0 274 126 274 281v203c0 78-63 141-141 141z m-203-78c0 26 21 47 47 47s47-21 47-47v-94c0-25-21-47-47-47s-47 21-47 47v94z m-156 62c0 26 21 47 47 47s47-21 47-47v-93c0-6-2-12-4-17-20 10-42 17-67 17h-23v93z m-156 250c0 26 21 47 47 47s47-21 47-47v-343h-79c-5 0-10-1-15-2 0 1 0 1 0 2v343z m382-765h-211c-30 0-59 7-85 22l-109 62c-25 13-40 40-40 68v98c0 43 35 78 78 78h164c31 0 55-25 55-55s-24-54-55-54h-101c-26 0-47-22-47-47s21-47 47-47h101c65 0 120 42 140 100 13-4 26-6 40-6 10 0 19 2 29 4 22-49 69-83 127-83 15 0 30 3 43 8-17-85-90-148-176-148z m180 281c0-26-21-47-47-47s-46 21-46 47v109c0 26 21 47 46 47s47-21 47-47v-109z" horiz-adv-x="875" />

<glyph glyph-name="share-from-square" unicode="&#xe85e;" d="M1110 572l-281 263c-19 18-48 17-66-1-18-19-17-49 2-67l195-184h-319c-79 5-153-28-209-83-57-57-88-132-88-212v-171c0-25 21-45 47-45s47 18 47 44v172c0 55 21 107 60 145 38 38 86 60 143 58h319l-195-185c-19-18-20-47-2-66 9-8 21-15 34-15 11 0 23 4 32 13l281 264c10 10 15 23 15 36s-5 25-15 34z m-407-472c-26 0-47-21-47-45v-92c0-9-7-14-15-14h-532c-8 0-15 7-15 14v528c0 8 7 14 15 14h110c26 0 47 21 47 45s-21 45-47 45h-110c-60 0-109-49-109-108v-529c0-59 49-108 109-108h532c60 0 109 49 109 108v92c0 29-21 50-47 50z" horiz-adv-x="1125" />

<glyph glyph-name="images" unicode="&#xe85f;" d="M1000 788h-687c-69 0-125-56-125-125v-438c0-69 56-125 125-125h687c69 0 125 56 125 125v438c0 69-56 125-125 125z m31-563c0-17-14-31-31-31h-31l-214 314c-6 9-15 14-26 14-10 0-20-5-26-14l-122-184-44 60c-6 8-15 13-25 13-10 0-20-5-25-13l-143-190h-31c-18 0-32 14-32 31v438c0 17 14 31 32 31h687c17 0 31-14 31-31v-438z m-593 406c-35 0-63-28-63-62s28-63 63-63c34 0 62 28 62 63s-28 62-62 62z m453-719h-657c-129 0-234 106-234 235v469c0 25 21 47 47 47s47-22 47-47v-469c0-78 63-141 140-141h657c26 0 47-21 47-47s-21-47-47-47z" horiz-adv-x="1125" />

<glyph glyph-name="registered" unicode="&#xe860;" d="M500 850c-276 0-500-224-500-500s224-500 500-500 500 224 500 500-224 500-500 500z m0-906c-224 0-406 182-406 406s182 406 406 406 406-182 406-406-182-406-406-406z m188 500c0 86-71 156-157 156l-172 0c-25 0-46-21-46-47v-406c0-26 21-47 46-47s47 21 47 47v141h117l75-161c8-17 25-27 43-27 6 0 13 1 20 4 23 11 33 39 22 63l-68 145c43 28 73 77 73 132z m-157-63h-125v125h125c35 0 63-28 63-62s-28-63-63-63z" horiz-adv-x="1000" />

<glyph glyph-name="image" unicode="&#xe861;" d="M297 616c-52 0-94-42-94-94s42-94 94-94 94 42 94 94-42 94-94 94z m576 172h-750c-67 0-123-56-123-125v-625c0-70 56-126 123-126h750c69 0 125 56 125 126v625c0 69-54 125-125 125z m32-737l-268 363c-5 9-16 14-28 14-12 0-23-5-29-14l-208-282-73 90c-7 9-17 14-29 14-11 0-22-5-29-14l-147-183c0 0 0 0 0 0l0 624c0 17 14 31 31 31h750c17 0 31-14 31-31v-612z" horiz-adv-x="1000" />

<glyph glyph-name="face-angry" unicode="&#xe862;" d="M641 81c-18-17-48-16-66 3-14 15-39 32-75 32-36 0-61-17-75-32-18-19-47-20-66-3-19 18-20 48-3 67 28 30 76 61 144 61 68 0 116-31 144-61 17-19 16-49-3-67z m-359 300c0 17 7 33 18 44l-60 20c-16 6-25 24-20 40 6 16 24 25 40 20l188-63c16-5 23-23 19-39-5-17-23-24-39-20l-22 7c1-3 1-6 1-9 0-34-28-62-62-62-35 0-63 28-63 62v0z m438 0c0-34-29-62-63-62-34 0-62 28-62 62 0 3 0 7 0 9l-22-7c-17-4-35 3-40 20-6 16 3 34 20 39l187 63c16 5 34-4 40-20 3-16-4-34-20-40l-59-19c11-11 19-27 19-45h0z m-720-31c0 276 224 500 500 500 276 0 500-224 500-500 0-276-224-500-500-500-276 0-500 224-500 500z m500-406c224 0 406 182 406 406 0 224-182 406-406 406-224 0-406-182-406-406 0-224 182-406 406-406z" horiz-adv-x="1000" />

<glyph glyph-name="envelope" unicode="&#xe863;" d="M0 600c0 69 56 125 125 125h750c69 0 125-56 125-125v-500c0-69-56-125-125-125h-750c-69 0-125 56-125 125v500z m94 0v-43l337-277c40-33 98-33 138 0l337 277v45c0 15-14 31-31 31h-750c-17 0-31-16-31-31l0-2z m0-164v-336c0-17 14-31 31-31h750c17 0 31 14 31 31v336l-277-228c-75-62-183-62-260 0l-275 228z" horiz-adv-x="1000" />

<glyph glyph-name="square-caret-down" unicode="&#xe864;" d="M625 475h-375c-19 0-35-11-45-28-5-17-2-37 11-51l187-203c9-9 21-15 35-15s25 6 34 15l187 203c13 14 16 34 9 51-7 17-24 28-43 28z m125 313h-625c-69 0-125-56-125-125v-625c0-70 56-126 125-126h625c69 0 125 56 125 126v625c0 69-56 125-125 125z m31-750c0-18-14-32-31-32h-625c-17 0-31 14-31 32v625c0 17 14 31 31 31h625c17 0 31-14 31-31v-625z" horiz-adv-x="875" />

<glyph glyph-name="square-caret-left" unicode="&#xe865;" d="M750 788h-625c-69 0-125-56-125-125v-625c0-70 56-126 125-126h625c69 0 125 56 125 126v625c0 69-56 125-125 125z m31-750c0-18-14-32-31-32h-625c-17 0-31 14-31 32v625c0 17 14 31 31 31h625c17 0 31-14 31-31v-625z m-247 543c-17 7-37 4-50-9l-203-188c-10-8-15-21-15-34s5-26 15-34l203-188c14-12 33-16 50-8 17 7 29 24 29 43v375c0 18-12 35-29 43z" horiz-adv-x="875" />

<glyph glyph-name="square-caret-right" unicode="&#xe866;" d="M391 572c-13 13-33 16-50 9-17-8-28-25-28-42v-375c0-20 11-37 28-44 17-8 37-5 50 8l203 188c10 8 15 21 15 34s-5 26-15 34l-203 188z m359 216h-625c-69 0-125-56-125-125v-625c0-70 56-126 125-126h625c69 0 125 56 125 126v625c0 69-56 125-125 125z m31-750c0-18-14-32-31-32h-625c-17 0-31 14-31 32v625c0 17 14 31 31 31h625c17 0 31-14 31-31v-625z" horiz-adv-x="875" />

<glyph glyph-name="square-caret-up" unicode="&#xe867;" d="M472 507c-9 9-21 15-34 15s-26-6-35-15l-187-203c-13-14-16-34-9-51 8-17 24-28 41-28h375c19 0 36 11 43 28 8 17 4 37-8 51l-186 203z m278 281h-625c-69 0-125-56-125-125v-625c0-70 56-126 125-126h625c69 0 125 56 125 126v625c0 69-56 125-125 125z m31-750c0-18-14-32-31-32h-625c-17 0-31 14-31 32v625c0 17 14 31 31 31h625c17 0 31-14 31-31v-625z" horiz-adv-x="875" />

<glyph glyph-name="square-check" unicode="&#xe868;" d="M414 186c-22-21-56-21-78 0l-125 125c-21 22-21 56 0 78 22 21 56 21 78 0l86-87 211 212c22 21 56 21 78 0 21-22 21-56 0-78l-250-250z m-414 477c0 69 56 125 125 125h625c69 0 125-56 125-125v-625c0-69-56-126-125-126h-625c-69 0-125 57-125 126v625z m94 0v-625c0-18 14-32 31-32h625c17 0 31 14 31 32v625c0 17-14 31-31 31h-625c-17 0-31-14-31-31z" horiz-adv-x="875" />

<glyph glyph-name="cloud-sunny-thin" unicode="&#xe869;" d="M750-133h-500c-79 0-233 50-233 233s154 233 233 233c13 0 25-12 25-25s-12-25-25-25c-8 0-183 0-183-183s175-183 183-183h500c8 0 183 0 183 183s-175 183-183 183c-12 0-25 13-25 25s13 25 25 25c79 0 233-50 233-233s-154-233-233-233z m-250 458c-42 0-79 17-108 46-25 25-42 62-42 104 0 42 17 79 46 108 58 59 154 59 212 0 25-29 42-66 42-108 0-42-17-79-46-108-25-25-62-42-104-42z m0 250c-25 0-50-8-71-29-16-21-29-46-29-71 0-25 8-50 29-71 38-37 104-37 142 0 17 17 29 46 29 71 0 25-8 50-29 71-21 17-46 29-71 29z m333-125h-41c-13 0-25 13-25 25s12 25 25 25h41c13 0 25-12 25-25s-12-25-25-25z m-625 0h-41c-13 0-25 13-25 25s12 25 25 25h41c13 0 25-12 25-25s-12-25-25-25z m521 188c-8 0-12 4-16 8-9 8-9 25 0 37l41 42c9 8 25 8 38 0s8-25 0-37l-42-42c-8-8-12-8-21-8z m-458 0c-8 0-13 4-17 8l-41 42c-9 8-9 25 0 37 8 8 25 8 37 0l42-42c8-8 8-25 0-37-9-8-13-8-21-8z m229 104c-12 0-25 12-25 25v41c0 13 13 25 25 25s25-12 25-25v-41c0-13-12-25-25-25z" horiz-adv-x="1000" />

<glyph glyph-name="square-minus" unicode="&#xe86a;" d="M609 397c26 0 47-21 47-47 0-26-21-47-47-47h-343c-26 0-47 21-47 47 0 26 21 47 47 47h343z m-609 266c0 69 56 125 125 125h625c69 0 125-56 125-125v-625c0-69-56-126-125-126h-625c-69 0-125 57-125 126v625z m94 0v-625c0-18 14-32 31-32h625c17 0 31 14 31 32v625c0 17-14 31-31 31h-625c-17 0-31-14-31-31z" horiz-adv-x="875" />

<glyph glyph-name="square-plus" unicode="&#xe86b;" d="M391 178v125h-125c-26 0-47 21-47 47 0 26 21 47 47 47h125v125c0 26 21 47 47 47 26 0 46-21 46-47v-125h125c26 0 47-21 47-47 0-26-21-47-47-47h-125v-125c0-26-20-47-46-47-26 0-47 21-47 47z m-391 485c0 69 56 125 125 125h625c69 0 125-56 125-125v-625c0-69-56-126-125-126h-625c-69 0-125 57-125 126v625z m94 0v-625c0-18 14-32 31-32h625c17 0 31 14 31 32v625c0 17-14 31-31 31h-625c-17 0-31-14-31-31z" horiz-adv-x="875" />

<glyph glyph-name="hand-right-outline" unicode="&#xe86c;" d="M854 642c-25 25-62 33-96 29v21c0 29-12 54-29 75-25 25-66 37-100 25-4 16-12 29-25 37-37 38-108 38-146 0-16-16-29-41-29-66-33 8-71 0-96-25-20-21-33-46-33-75v-234c-12 17-29 29-50 38-29 8-58 4-83-13-46-25-63-79-42-137l104-284c38-83 109-196 321-196 208 0 338 146 338 384v346c-5 29-13 58-34 75z m-308-721c-158 0-213 71-242 146l-104 283c-8 25 0 33 4 33 4 5 13 5 17 5 4 0 8-5 8-5l71-170c0 0 0 0 0 0 4-5 4-9 8-13 5-4 5-4 9-4 0 0 4-4 4-4 12-9 17-9 21-9 0 0 0 0 0 0 4 0 4 0 8 0 4 0 4 0 8 0 0 0 0 0 0 0 5 5 9 5 13 9 0 0 4 4 4 8 0 4 4 4 4 8 4 5 4 13 4 17 0 0 0 0 0 0v438c0 4 5 12 5 16 12 4 25 4 33 0 4-4 4-8 4-16v-284c0-25 17-41 42-41s41 16 41 41v375c0 4 5 13 5 17 8 8 20 8 29 0 4-4 4-8 4-17v-375c0-25 17-41 42-41s41 16 41 41v313c0 4 4 12 4 16 9 9 21 9 30 0 4-4 4-8 4-16v-342c0-25 16-42 41-42s42 17 42 42v217c0 4 4 12 4 16 9 9 21 9 29 0 5-4 5-8 5-16v-342c12-192-80-304-242-304z" horiz-adv-x="1000" />

<glyph glyph-name="sun" unicode="&#xe86d;" d="M987 216l-93 134 93 134c14 21 17 48 7 71-9 23-30 40-55 44l-161 29-29 161c-4 25-21 46-44 55-23 10-50 7-71-7l-134-93-134 93c-21 14-47 17-71 7-23-9-40-30-44-55l-29-161-161-29c-25-4-46-21-55-44-10-24-7-50 7-71l94-134-94-134c-14-21-17-47-7-71 9-23 30-40 55-44l161-29 29-161c4-25 21-46 44-55 24-10 50-7 71 7l134 93 134-93c13-9 28-13 42-13 10 0 20 2 29 6 23 9 40 30 44 55l29 161 161 29c25 4 46 21 55 44 10 24 7 50-7 71z m-95-28l-194-36-35-194-163 113-162-113-36 194-194 36 113 164-113 161 194 35 36 194 162-112 162 112 36-194 194-35-112-161 112-164z m-392 383c-121 0-217-98-217-217 0-121 98-217 217-217s217 98 217 217c0 117-96 217-217 217z m0-344c-69 0-125 56-125 125s56 123 125 123 125-56 125-123-56-125-125-125z" horiz-adv-x="1000" />

<glyph glyph-name="thumbs-down" unicode="&#xe86e;" d="M250 288v437c0 35-28 61-62 61h-125c-35 0-63-28-63-61v-436c0-34 28-60 63-60h125c34-4 62 24 62 59z m690 115c3 10 4 20 4 30 0 44-22 84-57 108 1 6 1 12 1 18 0 44-21 83-56 107-5 68-62 121-131 121h-102c-70 0-140-23-196-65l-72-53c-12-10-18-24-18-38 0-25 20-47 46-47 10 0 20 3 29 10l71 53c40 30 90 47 140 47h102c21 0 37-17 37-37 0-7-2-10-2-19 0-52 58-35 58-79 0-18-12-21-12-43 0-28 21-43 38-47 18-3 30-18 30-36 0-25-22-26-22-56 0-25 19-45 44-47 19 0 34-17 34-35 0-20-16-37-37-37h-269c-24 0-46-19-46-45 0-8 2-16 6-23 35-66 49-129 49-143 0-16-11-41-43-41-24 0-28 2-48 55-49 123-121 195-159 195-26 0-46-22-46-47 0-13 6-27 17-36 135-108 83-261 236-261 86 0 137 69 137 135 0 25-10 69-29 116h195c71 0 131 58 131 132 0 44-24 84-60 108z" horiz-adv-x="1000" />

<glyph glyph-name="thumbs-up" unicode="&#xe86f;" d="M188 477h-125c-35 0-63-28-63-61v-436c0-34 28-61 63-61h125c34 0 62 28 62 61v434c0 33-28 63-62 63z m812-70c0 72-59 130-131 130h-195c19 49 29 91 29 116 0 66-51 135-137 135-91 0-116-64-136-115-61-157-117-129-117-182 0-25 20-47 46-47 11 0 21 3 30 10 150 120 113 240 177 240 32 0 43-25 43-41 0-14-14-77-49-140-4-7-6-15-6-23 0-27 22-45 46-45h269c21-1 37-18 37-38 0-19-15-36-34-37-25-2-44-22-44-47 0-30 22-31 22-56 0-50-68-24-68-82 0-22 12-26 12-44 0-44-58-27-58-79 0-9 2-12 2-19 0-20-16-37-37-37h-102c-50 0-100 17-140 47l-71 54c-9 6-19 9-29 9-27 0-46-22-46-47 0-14 6-28 18-37l72-54c56-42 126-66 196-66h102c69 0 126 54 131 122 35 24 56 64 56 107 0 6 0 12-1 18 35 24 57 64 57 108 0 10-1 20-3 30 35 26 59 64 59 110z" horiz-adv-x="1000" />

<glyph glyph-name="user" unicode="&#xe870;" d="M531 256h-187c-190 0-344-154-344-344 0-34 28-62 63-62h750c34 0 62 28 62 62 0 190-154 344-344 344z m-435-312c15 123 120 219 248 219h187c128 0 233-96 248-219h-683z m342 406c138 0 250 112 250 250 0 138-112 250-250 250s-250-112-250-250c0-138 111-250 250-250z m0 406c86 0 156-70 156-156 0-86-70-156-156-156s-157 70-157 156c0 86 70 156 157 156z" horiz-adv-x="875" />

<glyph glyph-name="align-center" unicode="&#xe871;" d="M625 663h-375c-35 0-62 28-62 62 0 35 27 63 62 63h375c35 0 63-28 63-63 0-34-28-62-63-62z m188-250h-750c-35 0-63 27-63 62 0 35 28 63 63 63h750c34 0 62-28 62-63 0-35-28-62-62-62z m-813-438c0 35 28 63 63 63h750c34 0 62-28 62-63 0-35-28-63-62-63h-750c-35 0-63 28-63 63z m625 188h-375c-35 0-62 27-62 62 0 35 27 63 62 63h375c35 0 63-28 63-63 0-35-28-62-63-62z" horiz-adv-x="875" />

<glyph glyph-name="align-justify" unicode="&#xe872;" d="M813 663h-750c-35 0-63 28-63 62 0 35 28 63 63 63h750c34 0 62-28 62-63 0-34-28-62-62-62z m0-500h-750c-35 0-63 27-63 62 0 35 28 63 63 63h750c34 0 62-28 62-63 0-35-28-62-62-62z m-813 312c0 35 28 63 63 63h750c34 0 62-28 62-63 0-35-28-62-62-62h-750c-35 0-63 27-63 62z m813-563h-750c-35 0-63 28-63 63 0 35 28 63 63 63h750c34 0 62-28 62-63 0-35-28-63-62-63z" horiz-adv-x="875" />

<glyph glyph-name="align-left" unicode="&#xe873;" d="M500 663h-437c-35 0-63 28-63 62 0 35 28 63 63 63h437c35 0 63-28 63-63 0-34-28-62-63-62z m0-500h-437c-35 0-63 27-63 62 0 35 28 63 63 63h437c35 0 63-28 63-63 0-35-28-62-63-62z m-500 312c0 35 28 63 63 63h750c34 0 62-28 62-63 0-35-28-62-62-62h-750c-35 0-63 27-63 62z m813-563h-750c-35 0-63 28-63 63 0 35 28 63 63 63h750c34 0 62-28 62-63 0-35-28-63-62-63z" horiz-adv-x="875" />

<glyph glyph-name="align-right" unicode="&#xe874;" d="M813 663h-438c-35 0-62 28-62 62 0 35 27 63 62 63h438c34 0 62-28 62-63 0-34-28-62-62-62z m0-500h-438c-35 0-62 27-62 62 0 35 27 63 62 63h438c34 0 62-28 62-63 0-35-28-62-62-62z m-813 312c0 35 28 63 63 63h750c34 0 62-28 62-63 0-35-28-62-62-62h-750c-35 0-63 27-63 62z m813-563h-750c-35 0-63 28-63 63 0 35 28 63 63 63h750c34 0 62-28 62-63 0-35-28-63-62-63z" horiz-adv-x="875" />

<glyph glyph-name="anchor" unicode="&#xe875;" d="M688 506c34 0 62-28 62-62 0-35-28-63-62-63h-63v-406h94c103 0 187 84 187 188v11l-15-12c-17-20-46-20-65 0-18 17-18 47 0 65l110 109c18 19 48 19 64 0l110-109c20-18 20-48 0-65-17-20-47-20-65 0l-14 12v-11c0-173-140-313-312-313h-313c-172 0-312 140-312 313v11l-14-12c-18-20-48-20-66 0-19 17-19 47 0 65l109 109c18 19 48 19 66 0l108-109c20-18 20-48 0-65-16-20-46-20-65 0l-13 12v-11c0-104 82-188 187-188h94v406h-62c-35 0-63 28-63 63 0 34 28 62 63 62h21c-51 34-84 91-84 157 0 103 82 187 188 187 103 0 187-84 187-187 0-66-35-123-84-157h22z m-125 94c34 0 62 28 62 63 0 34-28 62-62 62-35 0-63-28-63-62 0-35 28-63 63-63z" horiz-adv-x="1125" />

<glyph glyph-name="angle-down" unicode="&#xe876;" d="M375 100c-16 0-32 6-44 18l-313 313c-24 24-24 64 0 88s64 25 89 0l268-268 268 268c25 25 64 25 89 0s24-64 0-88l-313-313c-12-12-28-18-44-18z" horiz-adv-x="750" />

<glyph glyph-name="angle-left" unicode="&#xe877;" d="M375-25c-16 0-32 6-44 18l-313 313c-24 24-24 64 0 88l313 313c24 24 64 24 88 0s25-64 0-89l-268-268 268-268c25-25 25-64 0-89-12-12-28-18-44-18z" horiz-adv-x="500" />

<glyph glyph-name="angle-right" unicode="&#xe878;" d="M125-25c-16 0-32 6-44 18-25 25-25 64 0 89l268 268-268 268c-25 25-25 64 0 89s64 24 88 0l313-313c24-24 24-64 0-88l-313-313c-12-12-28-18-44-18z" horiz-adv-x="500" />

<glyph glyph-name="angle-up" unicode="&#xe879;" d="M688 163c-16 0-32 6-45 18l-268 268-268-268c-25-25-64-25-89 0s-24 64 0 88l313 313c24 24 64 24 88 0l313-313c24-24 24-64 0-88-12-12-28-18-44-18z" horiz-adv-x="750" />

<glyph glyph-name="angles-left" unicode="&#xe87a;" d="M151 350l268 268c25 25 25 64 0 89s-64 24-88 0l-313-313c-24-24-24-64 0-88l313-313c12-12 28-18 44-18s32 6 44 18c25 25 25 64 0 89l-268 268z m375 0l268 268c25 25 25 64 0 89s-64 24-88 0l-312-313c-25-24-25-64 0-88l312-313c12-12 28-18 44-18s32 6 44 18c25 25 25 64 0 89l-268 268z" horiz-adv-x="875" />

<glyph glyph-name="angles-right" unicode="&#xe87b;" d="M482 394l-313 313c-24 24-64 24-88 0s-25-64 0-89l268-268-268-268c-25-25-25-64 0-89 12-12 28-18 44-18s32 6 44 18l313 313c24 24 24 64 0 88z m375 0l-313 313c-24 24-64 24-88 0s-25-64 0-89l268-268-268-268c-25-25-25-64 0-89 12-12 28-18 44-18s32 6 44 18l313 313c24 24 24 64 0 88z" horiz-adv-x="875" />

<glyph glyph-name="angles-up" unicode="&#xe87c;" d="M107 368l268 269 268-269c13-12 29-18 45-18s32 6 44 18c24 25 24 64 0 89l-313 312c-24 25-64 25-88 0l-313-312c-24-25-24-64 0-89s64-24 89 0z m312 26c-24 25-64 25-88 0l-313-312c-24-25-24-64 0-89s64-24 89 0l268 269 268-269c13-12 29-18 45-18s32 6 44 18c24 25 24 64 0 89l-313 312z" horiz-adv-x="750" />

<glyph glyph-name="angles-down" unicode="&#xe87d;" d="M331 306c12-12 28-18 44-18s32 6 44 18l313 312c24 25 24 64 0 89s-64 24-89 0l-268-269-268 269c-25 24-64 24-89 0s-24-64 0-89l313-312z m312 26l-268-269-268 269c-25 24-64 24-89 0s-24-64 0-89l313-312c12-12 28-19 44-19s32 7 44 19l313 312c24 25 24 64 0 89s-64 24-89 0z" horiz-adv-x="750" />

<glyph glyph-name="arrow-down-1-9" unicode="&#xe87e;" d="M625 475c0-35 28-61 63-61l125-1c34 0 62 27 62 62s-28 63-62 63v187c0 22-12 42-30 53-19 12-42 13-62 3l-62-33c-31-16-43-53-27-84 11-22 33-34 56-34v-92c-35 0-63-28-63-63z m141-124c-95 0-172-77-172-172 0-71 43-132 105-158l-15-16c-21-22-20-57 1-77 11-10 25-16 38-16 14 0 29 6 40 17 135 142 175 167 175 250 0 97-77 172-172 172z m0-219c-26 0-47 21-47 47s21 47 47 47 47-21 47-47-22-47-47-47z m-344 92c-17 0-34-6-46-20l-63-69v590c0 35-28 63-63 63s-62-28-62-63v-590l-64 69c-23 26-63 27-88 4-26-23-27-63-4-88l170-188c24-26 69-26 92 0l171 188c23 25 21 65-4 88-9 11-24 16-39 16z" horiz-adv-x="1000" />

<glyph glyph-name="arrow-down-a-z" unicode="&#xe87f;" d="M468 121c23 26 22 65-4 89-26 24-66 20-88-4l-63-71v590c0 35-28 63-63 63s-62-28-62-63v-590l-64 69c-23 26-63 27-88 4-26-23-27-63-4-88l170-188c24-26 69-26 92 0l174 189z m407-83h-99l143 143c18 18 23 45 14 68s-33 39-60 39h-250c-33 0-60-28-60-63s28-62 62-62h99l-143-144c-18-18-23-45-14-68s33-39 56-39h249c38 0 66 28 66 63s-28 63-63 63z m87 403l-156 313c-21 43-91 43-112 0l-156-313c-16-31-3-69 28-84 31-16 68-3 84 28l14 28h172l14-28c12-24 47-47 84-28 31 15 44 53 28 84z m-244 82l32 64 32-64h-64z" horiz-adv-x="1000" />

<glyph glyph-name="arrow-down-9-1" unicode="&#xe880;" d="M422 224c-17 0-34-6-46-20l-63-69v590c0 35-28 63-63 63s-62-28-62-63v-590l-64 69c-23 26-63 27-88 4-26-23-27-63-4-88l170-188c24-26 69-26 92 0l171 188c23 25 21 65-4 88-9 11-24 16-39 16z m277 233l-15-15c-21-22-21-57 1-78 11-10 25-15 38-15 14 0 29 6 40 17 136 142 175 167 175 250 0 94-77 171-172 171s-172-77-172-171c-2-71 43-133 105-159z m67 206c26 0 47-21 47-47s-22-47-47-47-47 21-47 47 21 47 47 47z m47-626v187c0 22-12 42-30 54-19 11-42 12-62 2l-62-33c-31-15-43-53-27-84 11-22 33-34 56-34v-92c-35 0-63-28-63-63s28-62 63-62h125c34 0 62 28 62 62s-28 63-62 63z" horiz-adv-x="1000" />

<glyph glyph-name="arrow-down-long" unicode="&#xe881;" d="M18 207c25 24 64 24 89 0l143-144v725c0 34 28 62 63 62s62-28 62-62v-725l143 144c25 24 64 24 89 0s24-64 0-89l-250-250c-25-24-64-24-89 0l-250 250c-24 25-24 64 0 89z" horiz-adv-x="625" />

<glyph glyph-name="arrow-down-short-wide" unicode="&#xe882;" d="M625 413h188c34 0 62 28 62 62s-28 63-62 63h-186c-35 0-63-28-63-63s26-62 61-62z m0-250h313c34 0 62 28 62 62s-28 63-62 63h-311c-35 0-63-28-63-63s26-62 61-62z m0 500h63c34 0 60 28 60 62s-28 63-60 63h-63c-34 0-62-28-62-63s27-62 62-62z m438-625h-436c-35 0-63-28-63-63s28-63 63-63h436c34 0 62 28 62 63s-28 63-62 63z m-687 166l-63-69v590c0 35-28 63-63 63s-62-28-62-63v-590l-64 69c-12 14-29 20-46 20-15 0-30-5-42-16-26-23-27-63-4-88l170-188c24-26 69-26 92 0l171 188c23 25 21 65-4 88-22 23-62 22-85-4z" horiz-adv-x="1125" />

<glyph glyph-name="arrow-down-up-across-line" unicode="&#xe883;" d="M81 56c-25 24-25 64 0 88 24 25 64 25 88 0l81-80v225h-187c-35 0-63 26-63 63 0 33 28 62 63 62h687v223l-81-81c-24-25-64-25-88 0-25 24-25 64 0 88l187 188c25 24 64 24 89 0l187-188c25-24 25-64 0-88-24-25-64-25-88 0l-81 81v-223h188c34 0 62-29 62-62 0-37-28-63-62-63h-688v-225l81 80c24 25 64 25 88 0 25-24 25-64 0-88l-187-188c-25-24-64-24-89 0l-187 188z m169 671c0 33 28 62 63 62 34 0 62-29 62-62v-250h-125v250z m625-500v-252c0-35-28-63-62-63-35 0-63 28-63 63v252h125z" horiz-adv-x="1125" />

<glyph glyph-name="arrow-down-wide-short" unicode="&#xe884;" d="M813 288h-186c-35 0-63-28-63-63s28-62 63-62h186c34 0 62 28 62 62s-28 63-62 63z m250 500h-436c-35 0-63-28-63-63s28-62 63-62h436c34 0 62 28 62 62s-28 63-62 63z m-375-750h-63c-34 0-62-28-62-63s28-63 62-63h63c34 0 60 28 60 63s-26 63-60 63z m250 500h-311c-35 0-63-28-63-63s28-62 63-62h311c34 0 62 28 62 62s-28 63-62 63z m-562-334l-63-69v590c0 35-28 63-63 63s-62-28-62-63v-590l-64 69c-12 14-29 20-46 20-15 0-30-5-42-16-26-23-27-63-4-88l170-188c24-26 69-26 92 0l171 188c23 25 21 65-4 88-22 23-62 22-85-4z" horiz-adv-x="1125" />

<glyph glyph-name="arrow-down-z-a" unicode="&#xe885;" d="M204-68c24-26 68-26 92 0l170 188c24 25 22 65-4 88-25 23-65 22-88-4l-61-69v590c0 35-28 63-63 63s-62-28-62-63v-590l-64 69c-12 14-29 21-46 21-15 0-30-6-42-17-26-23-27-63-4-88l172-188z m421 731h99l-143-144c-18-18-23-45-14-68s33-38 58-38h248c37 1 65 27 65 62s-28 63-63 63h-99l143 143c18 18 23 45 14 68s-33 39-60 39h-248c-35 0-62-28-62-63s27-62 62-62z m337-659l-156 312c-21 43-91 43-112 0l-156-312c-16-31-3-69 28-85 31-15 68-3 84 28l14 29h172l14-29c12-24 47-46 84-28 31 16 44 54 28 85z m-244 82l32 63 32-63h-64z" horiz-adv-x="1000" />

<glyph glyph-name="arrow-down" unicode="&#xe886;" d="M732 243l-313-312c-12-12-28-19-44-19s-32 7-44 19l-313 312c-24 25-24 64 0 89s64 24 89 0l206-206v599c0 35 28 61 60 61s65-26 65-61v-599l205 206c25 24 64 24 89 0s24-64 0-89z" horiz-adv-x="750" />

<glyph glyph-name="arrow-left-long" unicode="&#xe887;" d="M18 394l250 250c25 25 64 25 89 0s24-64 0-88l-143-143h724c34 0 62-28 62-63s-28-62-62-62h-724l143-144c24-24 24-64 0-88-25-25-64-25-89 0l-250 250c-24 24-24 64 0 88z" horiz-adv-x="1000" />

<glyph glyph-name="arrow-left" unicode="&#xe888;" d="M873 350c0-35-26-62-60-62h-599l205-206c25-25 25-64 0-89-12-12-28-18-44-18s-32 6-44 18l-313 313c-24 24-24 64 0 88l313 313c24 24 64 24 88 0s25-64 0-89l-205-205h599c34 0 60-28 60-63z" horiz-adv-x="875" />

<glyph glyph-name="arrow-pointer" unicode="&#xe889;" d="M45 788c11 0 22-5 30-12l536-476c9-8 14-19 14-32 0-24-19-43-43-43h-231l111-222c16-31 3-68-28-84-31-15-68-3-84 28l-113 227-162-184c-8-10-20-15-32-15-24 0-43 19-43 45v722c0 25 20 46 45 46h0z" horiz-adv-x="625" />

<glyph glyph-name="arrow-right-arrow-left" unicode="&#xe88a;" d="M63 506h724l-112-112c-25-24-25-64 0-88 12-12 28-18 44-18s32 6 44 18l219 219c24 24 24 64 0 88l-219 219c-24 24-64 24-88 0s-25-64 0-89l112-112h-724c-35 0-63-28-63-62s28-63 63-63z m875-312h-724l112 112c24 24 24 64 0 88s-64 25-89 0l-219-219c-24-24-24-63 0-88l219-219c12-12 28-18 44-18s32 6 44 18c25 25 25 64 0 89l-111 112h724c34 0 62 28 62 62s-28 63-62 63z" horiz-adv-x="1000" />

<glyph glyph-name="arrow-right-long" unicode="&#xe88b;" d="M982 306l-250-250c-25-25-64-24-89 0-24 24-24 64 0 88l144 144h-724c-35 0-63 27-63 64s28 61 63 61h724l-144 143c-24 24-24 64 0 88s64 25 89 0l250-250c24-24 24-64 0-88z" horiz-adv-x="1000" />

<glyph glyph-name="arrow-right-from-bracket" unicode="&#xe88c;" d="M313 38h-125c-35 0-63 28-63 62v500c0 35 28 63 63 63h125c34 0 62 28 62 62s-28 63-62 63h-125c-104 0-188-84-188-188v-500c0-104 84-188 188-188h125c34 0 62 28 62 63s-28 63-62 63z m669 356l-250 250c-25 25-64 25-89 0-24-24-24-64 0-88l144-143h-412c-35 0-62-28-62-63s27-62 62-62h412l-144-144c-24-24-24-64 0-88s64-25 89 0l250 250c24 24 24 64 0 88z" horiz-adv-x="1000" />

<glyph glyph-name="arrow-right-to-bracket" unicode="&#xe88d;" d="M813 788h-125c-35 0-63-28-63-63s28-62 63-62h125c34 0 62-28 62-63v-500c0-34-28-62-62-62h-125c-35 0-63-28-63-63s28-63 63-63h125c103 0 187 84 187 188v500c0 104-84 188-187 188z m-144-394l-250 250c-24 25-64 25-88 0-25-24-25-64 0-88l143-143h-411c-35 0-63-28-63-63s28-62 63-62h411l-143-144c-24-24-24-64 0-88s64-25 88 0l250 250c25 24 25 64 0 88z" horiz-adv-x="1000" />

<glyph glyph-name="arrow-right" unicode="&#xe88e;" d="M857 306l-313-313c-12-12-28-18-44-18s-32 6-44 18c-25 25-25 64 0 89l206 206h-599c-35 0-63 27-63 62s28 63 63 63h599l-206 205c-25 25-25 64 0 89s64 24 88 0l313-313c24-24 24-64 0-88z" horiz-adv-x="875" />

<glyph glyph-name="arrow-rotate-left" unicode="&#xe88f;" d="M938 350c0-241-197-437-438-437-95 0-186 30-262 87-27 21-33 60-12 88 20 27 60 33 87 12 55-41 119-62 187-62 173 0 313 140 313 312s-140 312-313 312c-98 0-190-47-249-124h124c35 0 63-28 63-63s-28-62-63-62h-281c-35 0-63 27-63 62v281c0 35 28 63 63 63s62-28 62-63v-137c83 105 208 168 344 168 241 0 438-196 438-437z" horiz-adv-x="1000" />

<glyph glyph-name="arrow-rotate-right" unicode="&#xe890;" d="M969 756v-281c0-35-28-62-63-62h-281c-35 0-62 27-62 62s27 63 62 63h124c-59 77-151 124-249 124-172 0-312-140-312-312s140-312 312-312c68 0 133 21 187 62 28 21 67 15 87-12 21-28 16-67-12-88-76-57-167-87-262-87-241 0-437 196-437 437s196 437 437 437c135 0 262-63 344-168v137c0 35 28 63 62 63s63-28 63-63z" horiz-adv-x="1000" />

<glyph glyph-name="arrow-trend-down" unicode="&#xe891;" d="M912 163l-287 286-206-206c-24-24-64-24-88 0l-313 313c-24 24-24 64 0 88 25 25 64 25 89 0l266-268 208 206c24 24 64 24 88 0l331-331v163c0 33 28 63 63 63 34 0 62-30 62-63v-314c0-35-28-62-62-62h-313c-35 0-62 27-62 62 0 35 27 63 62 63l162 0z" horiz-adv-x="1125" />

<glyph glyph-name="arrow-turn-down" unicode="&#xe892;" d="M669 118l-250-250c-12-12-28-18-46-18s-32 6-44 18l-248 250c-25 25-25 64 0 89s64 24 88 0l144-144v631c0 17-15 31-32 31h-218c-35 0-63 28-63 63s28 62 63 62h218c86 0 157-70 157-156v-631l143 144c24 24 64 24 88 0s25-64 0-89z" horiz-adv-x="750" />

<glyph glyph-name="arrow-trend-up" unicode="&#xe893;" d="M750 538c-35 0-62 27-62 62 0 35 27 63 62 63h313c34 0 62-28 62-63v-312c0-35-28-63-62-63-35 0-63 28-63 63v161l-331-331c-24-24-64-24-88 0l-208 206-266-268c-25-25-64-25-89 0-24 24-24 64 0 88l313 313c24 24 64 24 88 0l206-206 287 288-162-1z" horiz-adv-x="1125" />

<glyph glyph-name="arrow-turn-up" unicode="&#xe894;" d="M669 493c-12-12-28-18-46-18s-32 6-44 18l-141 144v-631c0-86-71-156-157-156h-218c-35 0-63 28-63 62s28 63 63 63h218c17 0 32 14 32 31v631l-144-144c-24-24-64-24-88 0s-25 64 0 89l248 250c25 24 64 24 88 0l250-250c27-25 27-64 2-89z" horiz-adv-x="750" />

<glyph glyph-name="arrow-up-1-9" unicode="&#xe895;" d="M625 475c0-35 28-61 63-61l125-1c34 0 62 27 62 62s-28 63-62 63v187c0 22-12 42-30 53-19 12-42 13-62 3l-62-33c-31-16-43-53-27-84 11-22 33-34 56-34v-92c-35 0-63-28-63-63z m141-124c-95 0-172-77-172-172 0-71 43-132 105-158l-15-16c-21-22-20-57 1-77 11-10 25-16 38-16 14 0 29 6 40 17 135 142 175 167 175 250 0 97-77 172-172 172z m0-219c-26 0-47 21-47 47s21 47 47 47 47-21 47-47-22-47-47-47z m-688 344c17 0 34 6 46 20l64 69v-590c0-34 28-62 60-62s63 28 63 62v590l65-69c23-25 63-27 88-4 26 23 27 63 4 88l-172 188c-24 26-68 26-92 0l-170-188c-25-25-24-65 2-88 12-11 27-16 42-16z" horiz-adv-x="1000" />

<glyph glyph-name="arrow-up-9-1" unicode="&#xe896;" d="M464 492c26 23 27 63 4 88l-172 188c-24 26-68 26-92 0l-170-188c-25-25-24-65 2-88 25-23 65-22 88 4l64 69v-590c0-34 28-62 60-62s63 28 63 62v590l65-69c12-13 29-20 46-20 15 0 30 5 42 16z m235-35l-15-15c-21-22-21-57 1-78 11-10 25-15 38-15 14 0 29 6 40 17 136 142 175 167 175 250 0 94-77 171-172 171s-172-77-172-171c-2-71 43-133 105-159z m67 206c26 0 47-21 47-47s-22-47-47-47-47 21-47 47 21 47 47 47z m47-626v187c0 22-12 42-30 54-19 11-42 12-62 2l-62-33c-31-15-43-53-27-84 11-22 33-34 56-34v-92c-35 0-63-28-63-63s28-62 63-62h125c34 0 62 28 62 62s-28 63-62 63z" horiz-adv-x="1000" />

<glyph glyph-name="arrow-up-a-z" unicode="&#xe897;" d="M296 768c-24 26-68 26-92 0l-170-188c-25-25-24-65 2-88 25-23 65-22 88 4l64 69v-590c0-35 27-63 62-63s63 28 63 65v588l63-69c22-24 62-28 88-4 26 23 27 63 4 89l-172 187z m579-730h-99l143 143c18 18 23 45 14 68s-33 39-58 39h-252c-33 0-60-28-60-63s28-62 62-62h99l-143-144c-18-18-23-45-14-68s33-39 56-39h249c38 0 66 28 66 63s-28 63-63 63z m87 403l-156 313c-21 43-91 43-112 0l-156-313c-16-31-3-69 28-84 31-16 68-3 84 28l14 28h172l14-28c12-24 47-47 84-28 31 15 44 53 28 84z m-244 82l32 64 32-64h-64z" horiz-adv-x="1000" />

<glyph glyph-name="arrow-up-from-bracket" unicode="&#xe898;" d="M750 163v-125c0-35-28-63-62-63h-500c-35 0-63 28-63 63v125c0 34-28 62-62 62s-63-28-63-62v-125c0-104 84-188 188-188h500c103 0 187 84 187 188v125c0 34-28 62-62 62s-63-28-63-62z m-357 669l-250-250c-24-25-24-64 0-89 25-24 64-24 89 0l143 144v-412c0-35 28-62 63-62s62 27 62 62v412l143-144c25-24 64-24 89 0s24 64 0 89l-250 250c-25 24-64 24-89 0z" horiz-adv-x="875" />

<glyph glyph-name="arrow-up-right-dots" unicode="&#xe899;" d="M561 850c36 0 64-28 64-62v-250c0-35-28-63-64-63-33 0-63 28-63 63v99l-391-394c-25-24-64-24-89 0-24 25-24 64 0 89l394 393h-101c-33 0-63 28-63 63 0 34 30 62 63 62h250z m564-156c0-52-42-94-94-94-51 0-93 42-93 94 0 52 42 94 93 94 52 0 94-42 94-94z m-250-250c0-52-42-94-94-94-51 0-93 42-93 94 0 52 42 94 93 94 52 0 94-42 94-94z m-187-250c0 52 42 94 93 94 52 0 94-42 94-94 0-52-42-94-94-94-51 0-93 42-93 94z m187-250c0-52-42-94-94-94-51 0-93 42-93 94 0 51 42 94 93 94 52 0 94-43 94-94z m250 0c0-52-42-94-94-94-51 0-93 42-93 94 0 51 42 94 93 94 52 0 94-43 94-94z m-689 250c0 52 44 94 94 94 53 0 95-42 95-94 0-52-42-94-95-94-50 0-94 42-94 94z m189-250c0-52-42-94-95-94-50 0-94 42-94 94 0 51 44 94 94 94 53 0 95-43 95-94z m-439 0c0 51 44 94 94 94 53 0 93-43 93-94 0-52-40-94-93-94-50 0-94 42-94 94z m939 250c0-52-42-94-94-94-51 0-93 42-93 94 0 52 42 94 93 94 52 0 94-42 94-94z m-187 250c0 52 42 94 93 94 52 0 94-42 94-94 0-52-42-94-94-94-51 0-93 42-93 94z" horiz-adv-x="1125" />

<glyph glyph-name="arrow-up-long" unicode="&#xe89a;" d="M607 493c-25-24-64-24-89 0l-143 144v-725c0-34-28-62-62-62s-63 28-63 62v725l-143-144c-25-24-64-24-89 0s-24 64 0 89l250 250c25 24 64 24 89 0l250-250c24-25 24-64 0-89z" horiz-adv-x="625" />

<glyph glyph-name="hand-left-outline" unicode="&#xe89b;" d="M833 454c-25 13-54 17-83 9-21-9-42-21-54-38v238c0 29-13 54-29 75-25 25-63 33-96 29 0 25-13 50-29 66-38 38-109 38-146 0-13-12-21-25-25-37-33 8-75 0-100-29-21-17-29-46-29-75v-21c-38 8-71-4-96-29-21-17-29-46-29-75v-342c0-238 129-383 337-383 213 0 284 112 321 200l104 279c17 58 4 108-46 133z m-33-104l-104-279c-33-75-83-146-242-146-162 0-254 108-254 300v342c0 4 4 12 4 16 9 9 21 9 29 0 5-4 5-8 5-16v-217c0-25 16-42 41-42s42 17 42 42v342c0 4 4 12 4 16 8 9 21 9 29 0 4-4 4-8 4-16v-313c0-25 17-41 42-41s42 16 42 41v375c0 4 4 13 4 17 8 8 21 8 29 0 4-4 4-8 4-17v-375c0-25 17-41 42-41 25 0 42 16 42 41v284c0 4 4 12 4 16 8 9 21 9 29 0 4-4 4-8 4-16v-438c0 0 0 0 0 0 0-4 0-12 4-17 0-4 4-4 4-8 0-4 5-4 5-8 4-4 8-9 12-9 0 0 0 0 0 0 4 0 4 0 8 0 5 0 5 0 9 0 0 0 0 0 0 0 4 0 12 0 16 5 5 0 5 4 9 4 0 0 4 4 4 4 4 4 8 8 8 12 0 0 0 0 0 0l71 167c4 4 4 8 13 8 4 0 12 0 16-4 17 0 29-4 21-29z" horiz-adv-x="1000" />

<glyph glyph-name="arrow-up-short-wide" unicode="&#xe89c;" d="M1063 38h-436c-35 0-63-28-63-63s28-63 63-63h436c34 0 62 28 62 63s-28 63-62 63z m-438 625h63c34 0 60 28 60 62s-28 63-60 63h-63c-34 0-62-28-62-63s27-62 62-62z m0-250h188c34 0 62 28 62 62s-28 63-62 63h-186c-35 0-63-28-63-63s26-62 61-62z m0-250h313c34 0 62 28 62 62s-28 63-62 63h-311c-35 0-63-28-63-63s26-62 61-62z m-329 605c-24 26-68 26-92 0l-170-188c-25-25-24-65 2-88 12-11 27-16 42-16 17 0 34 6 46 20l64 69v-590c0-35 27-63 62-63s63 28 63 63v590l63-69c23-25 63-27 88-4 26 23 27 63 4 88l-172 188z" horiz-adv-x="1125" />

<glyph glyph-name="arrow-up-wide-short" unicode="&#xe89d;" d="M813 288h-186c-35 0-63-28-63-63s28-62 63-62h186c34 0 62 28 62 62s-28 63-62 63z m-125-250h-63c-34 0-62-28-62-63s28-63 62-63h63c34 0 60 28 60 63s-26 63-60 63z m250 500h-311c-35 0-63-28-63-63s28-62 63-62h311c34 0 62 28 62 62s-28 63-62 63z m125 250h-436c-35 0-63-28-63-63s28-62 63-62h436c34 0 62 28 62 62s-28 63-62 63z m-767-20c-24 26-68 26-92 0l-170-188c-25-25-24-65 2-88 12-11 27-16 42-16 17 0 34 6 46 20l64 69v-590c0-35 27-63 62-63s63 28 63 63v590l63-69c23-25 63-27 88-4 26 23 27 63 4 88l-172 188z" horiz-adv-x="1125" />

<glyph glyph-name="arrow-up-z-a" unicode="&#xe89e;" d="M296 768c-24 26-68 26-92 0l-170-188c-25-25-24-65 2-88 25-23 65-22 88 4l64 69v-590c0-35 27-63 62-63s63 28 63 65v588l63-69c12-13 29-20 46-20 15 0 30 5 42 16 26 23 27 63 4 89l-172 187z m329-105h99l-143-144c-18-18-23-45-14-68s33-38 58-38h248c37 1 65 27 65 62s-28 63-63 63h-99l143 143c18 18 23 45 14 68s-33 39-60 39h-248c-35 0-62-28-62-63s27-62 62-62z m337-659l-156 312c-21 43-91 43-112 0l-156-312c-16-31-3-69 28-85 31-15 68-3 84 28l14 29h172l14-29c12-24 47-46 84-28 31 16 44 54 28 85z m-244 82l32 63 32-63h-64z" horiz-adv-x="1000" />

<glyph glyph-name="arrow-up" unicode="&#xe89f;" d="M732 368c-12-12-28-18-44-18s-32 6-45 18l-205 206v-599c0-35-28-61-61-61s-64 26-64 61v599l-206-206c-25-24-64-24-89 0s-24 64 0 89l313 312c24 25 64 25 88 0l313-312c24-25 24-64 0-89z" horiz-adv-x="750" />

<glyph glyph-name="arrows-down-to-line" unicode="&#xe8a0;" d="M1063 38c34 0 62-28 62-63 0-35-28-63-62-63h-1000c-35 0-63 28-63 63 0 35 28 63 63 63h1000z m-144 80c-24-24-64-24-88 0l-188 188c-24 24-24 64 0 88 25 25 64 25 89 0l81-80v411c0 35 27 63 62 63 35 0 63-28 63-63v-411l80 80c25 25 64 25 89 0 24-24 24-64 0-88l-188-188z m-437 188l-188-188c-24-24-64-24-88 0l-188 188c-24 24-24 64 0 88 25 25 64 25 89 0l81-80v411c0 35 27 63 62 63 35 0 63-28 63-63v-411l80 80c25 25 64 25 89 0 24-24 24-64 0-88h0z" horiz-adv-x="1125" />

<glyph glyph-name="arrows-left-right" unicode="&#xe8a1;" d="M982 306l-188-188c-12-12-28-18-44-18s-32 6-44 18c-25 25-25 64 0 89l81 81h-573l80-81c25-25 25-64 0-89-12-12-28-18-44-18s-32 6-44 18l-188 188c-24 24-24 64 0 88l188 188c24 24 64 24 88 0s25-64 0-89l-80-80h573l-81 80c-24 25-24 64 0 89s64 24 88 0l188-188c24-24 24-64 0-88z" horiz-adv-x="1000" />

<glyph glyph-name="arrows-rotate" unicode="&#xe8a2;" d="M906 819c-34 0-62-28-62-63v-144c-78 108-204 176-344 176-185 0-346-118-403-294-11-33 7-68 40-78 33-11 68 7 79 40 40 124 154 207 284 207 99 0 188-48 243-125h-87c-34 0-62-28-62-63s28-62 62-62h250c35 0 63 27 63 62v281c0 35-28 63-63 63z m-43-535c-33 11-68-7-79-40-40-123-154-206-284-206-99 0-188 47-243 125h87c34 0 62 27 62 62s-28 63-62 63h-250c-35 0-63-28-63-63v-281c0-35 28-63 63-63s62 28 62 63v145c78-109 205-177 342-177 185 0 347 118 403 294 13 33-5 70-38 78z" horiz-adv-x="1000" />

<glyph glyph-name="arrows-spin" unicode="&#xe8a3;" d="M502 663c-22 0-44-2-66-6v127c23 3 44 4 66 4 114 0 217-43 295-114l58 58c19 19 53 5 53-23v-205c0-18-14-32-31-32h-206c-28 0-42 34-22 54l60 60c-55 48-128 77-207 77l0 0z m-312-312c0-22 2-43 6-63h-127c-3 20-4 41-4 63 0 112 42 214 111 292l-57 57c-20 20-6 54 20 54h208c17 0 31-14 31-32v-205c0-28-34-42-54-23l-59 60c-47-55-75-125-75-203v0z m166-181l-57-56c55-47 126-75 203-75 21 0 41 1 61 5v-126c-20-3-40-5-61-5-112 0-214 44-291 112l-61-61c-20-20-54-6-54 22v206c0 17 14 31 32 31h205c27 0 42-33 23-53h0z m324 31l57-56c48 54 78 127 78 206 0 21-2 42-6 62h126c3-21 5-41 5-62 0-114-44-217-115-295l61-61c20-19 6-53-22-53h-206c-17 0-31 14-31 31v206c0 28 33 42 53 22l0 0z" horiz-adv-x="1000" />

<glyph glyph-name="arrows-split-up-and-left" unicode="&#xe8a4;" d="M482 556c-25-25-64-25-89 0-24 24-24 64 0 88l188 188c24 24 64 24 88 0l188-188c24-24 24-64 0-88-25-25-64-25-89 0l-80 81v-537c0-69 56-125 125-125h125c34 0 62-28 62-63 0-34-28-62-62-62h-125c-139 0-250 112-250 250 0 69-57 125-125 125h-224l80-81c25-24 25-64 0-88-24-25-64-25-88 0l-188 187 0 0c-11 12-18 27-18 44l5 24c3 10 7 15 13 21l188 187c24 25 64 25 88 0 25-24 25-64 0-88l-80-79h224c45 0 88-14 125-35v320l-81-81z m-482-268c0 8 2 16 5 23-3-7-5-15-5-23z m0-1v2-1-1z" horiz-adv-x="1000" />

<glyph glyph-name="arrows-turn-right" unicode="&#xe8a5;" d="M581 832c24 24 64 24 88 0l188-188c24-24 24-64 0-88l-188-188c-24-24-64-24-88 0-25 25-25 64 0 89l81 81h-412c-69 0-125-57-125-125v-63c0-35-28-62-62-62-35 0-63 27-63 62v63c0 138 112 250 250 250h412l-81 80c-25 25-25 64 0 89v0z m-188-500c25 24 64 24 89 0l187-188c25-24 25-64 0-88l-187-188c-25-24-64-24-89 0-24 25-24 64 0 89l81 81h-286c-35 0-63-28-63-63v-63c0-34-28-62-62-62-35 0-63 28-63 62v63c0 105 84 188 188 188h286l-81 80c-24 25-24 64 0 89v0z" horiz-adv-x="875" />

<glyph glyph-name="arrows-turn-to-dots" unicode="&#xe8a6;" d="M487 800c25 25 64 25 88 0 25-24 25-63 0-88l-49-48h287c103 0 187-84 187-187v-63c0-36-28-62-62-62-35 0-63 26-63 62v63c0 33-28 62-62 62h-287l49-51c25-24 25-64 0-88-24-25-63-25-88 0l-156 156c-25 24-25 64 0 88l156 156z m182-656c25-24 25-64 0-88l-156-156c-24-25-64-25-88 0-25 24-25 63 0 88l49 50h-286c-35 0-63-28-63-63v-63c0-34-28-62-62-62-35 0-63 28-63 62v63c0 105 84 188 188 188h286l-49 49c-25 25-25 64 0 88 24 25 64 25 88 0l156-156z m331-44c0-69-56-125-125-125-69 0-125 56-125 125 0 69 56 125 125 125 69 0 125-56 125-125z m-750 500c0-69-56-125-125-125-69 0-125 56-125 125 0 69 56 125 125 125 69 0 125-56 125-125z" horiz-adv-x="1000" />

<glyph glyph-name="restaurant-outline" unicode="&#xe8a7;" d="M779-129c-29 0-58 12-79 33l-175 179c-21 21-29 46-29 75v13c0 4 0 4 0 8 0 4-4 4-4 9l-21 20c-4 5-4 5-8 5-5 0-9 0-9 0-21-5-46-5-71 0-29 0-50 12-66 29l-167 166c-71 71-112 167-112 250 0 50 16 96 50 125 16 17 41 17 58 0l721-720c21-21 33-50 33-80 0-29-12-58-33-79s-54-33-88-33z m-329 421c8 0 17 0 25-4 17-5 33-13 46-25l21-21c12-13 16-21 25-34 4-12 8-25 8-41v-13c0-4 4-12 4-12l175-180c13-12 34-12 46 0 4 5 8 13 8 21 0 9-4 17-8 21l-679 684c-4-9-4-21-4-30 0-58 37-133 91-191l167-167c8-8 17-12 25-12 8-5 17-5 29 0 4 4 13 4 21 4z m-308-421c-34 0-63 12-84 33-20 21-33 54-33 83 0 34 13 63 33 84l167 162c17 17 42 17 58 0 17-16 17-41 0-58l-166-162c-9-9-13-17-13-26 0-8 4-20 13-25 12-12 37-12 50 0l196 196c16 17 41 17 58 0 17-16 17-41 0-58l-196-196c-21-21-54-33-83-33z m483 500c-12 0-21 4-29 12-17 17-17 42 0 59l21 21c8 8 16 12 25 16 8 4 16 4 29 4h29c13 0 21 5 33 9 9 4 21 8 30 16l150 150c16 17 41 17 58 0s17-41 0-58l-150-150c-17-17-33-29-54-37-21-9-42-13-63-13h-25l-21-21c-12-4-20-8-33-8z m50 33l0 0c0 0 0 0 0 0z m-112 29c-13 0-21 5-30 13-16 17-16 42 0 58l21 21 0 25c0 21 4 42 13 63 8 20 21 37 37 54l146 150c17 16 42 16 58 0s17-42 0-59l-150-150c-8-8-12-16-16-29-4-8-9-21-9-33v-29c0-9 0-21-4-29-4-5-8-13-16-21l-21-21c-9-8-17-13-29-13z m141 80c-12 0-21 4-29 12-17 17-17 42 0 58l158 159c17 16 42 16 59 0s16-42 0-59l-159-158c-8-8-20-12-29-12z" horiz-adv-x="1000" />

</font>
</defs>
</svg>
